<svg xmlns="http://www.w3.org/2000/svg" width="476pt" height="476pt" viewBox="-76 0 476 476.963"><path fill="#4e7693" d="m237.363281 469.957031-74.082031-42.597656-74.078125 42.597656v-194.414062h148.160156zm0 0"/><path fill="#ffdf46" d="m163.28125 427.359375 74.082031 42.597656v-194.414062h-74.082031zm0 0"/><path fill="#2c5168" d="m89.203125 323.59375c7.371094 5.832031 17.226563 7.453125 26.078125 4.296875 9.988281-3.5625 21.136719-1.019531 28.59375 6.523437 5.128906 5.191407 12.125 8.109376 19.421875 8.109376 7.300781 0 14.292969-2.917969 19.425781-8.109376 7.449219-7.527343 18.578125-10.070312 28.558594-6.523437 8.847656 3.152344 18.695312 1.527344 26.066406-4.296875v-48.050781h-148.144531zm0 0"/><path fill="#ffc32c" d="m163.28125 342.527344c7.300781.007812 14.300781-2.914063 19.425781-8.113282 7.453125-7.535156 18.589844-10.078124 28.574219-6.523437 8.847656 3.152344 18.695312 1.527344 26.066406-4.296875v-48.050781h-74.066406zm0 0"/><path fill="#ffdf46" d="m314.8125 180.773438c3.917969 6.15625 5.210938 13.625 3.585938 20.742187-1.625 7.113281-6.027344 13.28125-12.230469 17.128906-9.011719 5.589844-13.972657 15.894531-12.722657 26.425781.859376 7.246094-1.21875 14.535157-5.769531 20.242188-4.546875 5.707031-11.191406 9.355469-18.449219 10.128906-10.542968 1.128906-19.484374 8.253906-22.929687 18.285156-2.371094 6.90625-7.40625 12.574219-13.988281 15.738282-6.578125 3.167968-14.152344 3.566406-21.027344 1.113281-9.988281-3.5625-21.136719-1.019531-28.589844 6.523437-5.132812 5.191407-12.128906 8.113282-19.425781 8.113282s-14.292969-2.921875-19.425781-8.113282c-7.449219-7.527343-18.578125-10.070312-28.558594-6.523437-6.875 2.449219-14.445312 2.046875-21.019531-1.121094s-11.609375-8.832031-13.980469-15.734375c-3.445312-10.03125-12.382812-17.160156-22.925781-18.285156-7.257813-.777344-13.902344-4.421875-18.453125-10.128906-4.550782-5.707032-6.628906-12.996094-5.769532-20.242188 1.25-10.53125-3.710937-20.835937-12.722656-26.425781-6.203125-3.847656-10.605468-10.015625-12.230468-17.128906-1.625-7.117188-.332032-14.585938 3.585937-20.742188 5.695313-8.945312 5.695313-20.382812 0-29.328125-3.917969-6.15625-5.210937-13.625-3.585937-20.742187 1.625-7.113281 6.027343-13.28125 12.230468-17.128907 9.011719-5.589843 13.972656-15.894531 12.722656-26.425781-.859374-7.246093 1.21875-14.535156 5.769532-20.242187 4.550781-5.707032 11.195312-9.351563 18.453125-10.128906 10.539062-1.132813 19.472656-8.261719 22.914062-18.292969 2.375-6.902344 7.410157-12.566407 13.988281-15.730469 6.578126-3.164062 14.148438-3.5625 21.023438-1.109375 9.988281 3.5625 21.136719 1.019531 28.59375-6.523437 5.128906-5.191407 12.125-8.109376 19.421875-8.109376 7.300781 0 14.292969 2.917969 19.425781 8.109376 7.449219 7.527343 18.578125 10.070312 28.558594 6.523437 6.875-2.453125 14.445312-2.054687 21.023438 1.109375 6.578124 3.164062 11.617187 8.828125 13.988281 15.730469 3.445312 10.03125 12.382812 17.15625 22.929687 18.285156 7.253906.777344 13.902344 4.421875 18.449219 10.128906 4.550781 5.707031 6.628906 12.996094 5.769531 20.242188-1.25 10.53125 3.710938 20.835937 12.722656 26.425781 6.203126 3.847656 10.605469 10.015625 12.230469 17.128906 1.625 7.117188.332031 14.585938-3.585937 20.742188-5.695313 8.949218-5.695313 20.390625.003906 29.339844zm0 0"/><path fill="#ffc32c" d="m314.8125 151.445312c3.917969-6.15625 5.210938-13.625 3.585938-20.742187-1.625-7.113281-6.027344-13.28125-12.230469-17.128906-9.011719-5.589844-13.972657-15.894531-12.722657-26.425781.859376-7.246094-1.21875-14.535157-5.769531-20.242188-4.546875-5.707031-11.191406-9.351562-18.449219-10.128906-10.550781-1.128906-19.492187-8.261719-22.933593-18.296875-2.367188-6.875-7.378907-12.523438-13.921875-15.695313-6.546875-3.167968-14.085938-3.59375-20.949219-1.183594 7.902344 2.746094 14.101563 8.96875 16.820313 16.878907 3.445312 10.03125 12.382812 17.15625 22.925781 18.285156 7.257812.777344 13.902343 4.421875 18.453125 10.128906 4.550781 5.707031 6.628906 12.996094 5.769531 20.242188-1.25 10.53125 3.710937 20.835937 12.722656 26.425781 6.203125 3.847656 10.605469 10.015625 12.230469 17.128906 1.625 7.117188.332031 14.585938-3.585938 20.742188-5.695312 8.945312-5.695312 20.382812 0 29.328125 3.917969 6.15625 5.210938 13.625 3.585938 20.742187-1.625 7.113282-6.027344 13.28125-12.230469 17.128906-9.011719 5.589844-13.972656 15.894532-12.722656 26.425782.859375 7.246094-1.21875 14.535156-5.769531 20.242187-4.550782 5.707031-11.195313 9.351563-18.453125 10.128907-10.542969 1.128906-19.484375 8.261718-22.925781 18.292968-2.710938 7.910156-8.90625 14.136719-16.800782 16.890625 6.863282 2.410157 14.40625 1.980469 20.953125-1.191406 6.542969-3.167969 11.554688-8.820313 13.917969-15.699219 3.445312-10.03125 12.386719-17.160156 22.929688-18.285156 7.257812-.777344 13.902343-4.421875 18.449218-10.128906 4.550782-5.707032 6.628906-12.996094 5.769532-20.242188-1.246094-10.53125 3.714843-20.835937 12.726562-26.425781 6.199219-3.847656 10.605469-10.015625 12.226562-17.128906 1.625-7.117188.332032-14.585938-3.585937-20.742188-5.695313-8.941406-5.703125-20.375-.015625-29.324219zm0 0"/><path fill="#4e7693" d="m280.519531 166.109375c0 64.746094-52.488281 117.234375-117.238281 117.234375-64.746094 0-117.234375-52.488281-117.234375-117.234375s52.488281-117.234375 117.234375-117.234375c64.75 0 117.238281 52.488281 117.238281 117.234375zm0 0"/><path fill="#2c5168" d="m163.28125 48.882812c-3.199219 0-6.398438.164063-9.542969.398438 60.851563 4.9375 107.71875 55.765625 107.71875 116.816406 0 61.050782-46.867187 111.878906-107.71875 116.816406 3.152344.253907 6.328125.398438 9.542969.398438 63.894531-1.179688 115.070312-53.3125 115.070312-117.214844s-51.175781-116.035156-115.070312-117.214844zm0 0"/><path fill="#ffdf46" d="m163.28125 213.65625-46.929688 24.671875 8.960938-52.257813-37.964844-37.007812 52.46875-7.625 23.464844-47.546875 23.464844 47.546875 52.472656 7.625-37.96875 37.007812 8.964844 52.257813zm0 0"/><g fill="#ffc32c"><path d="m114.210938 145.15625-9.882813 20.460938 12.386719 12.074218 17.082031-35.382812zm0 0"/><path d="m187.554688 141.554688-38.410157 79.535156 14.136719-7.433594 2.546875 1.339844 34.570313-71.578125zm0 0"/><path d="m218.363281 146.03125-8.511719-1.238281-35.953124 74.445312 7.261718 3.820313zm0 0"/><path d="m172.464844 112.5-4.597656-9.328125-43.941407 90.980469-5.015625 29.246094zm0 0"/></g><path fill="#202e35" d="m39.042969 166.121094c0-3.867188 3.132812-7 7-7 3.863281 0 7 3.132812 7 7 0 60.882812 49.355469 110.242187 110.238281 110.242187s110.242188-49.359375 110.242188-110.242187c0-60.882813-49.359376-110.238282-110.242188-110.238282-33.929688-.09375-65.992188 15.527344-86.832031 42.300782-2.402344 2.972656-6.75 3.46875-9.757813 1.109375-3.011718-2.355469-3.570312-6.691407-1.261718-9.738281 32.671874-41.746094 88.226562-58.164063 138.339843-40.886719 50.113281 17.277343 83.75 64.445312 83.753907 117.453125-.203126 51.359375-31.820313 97.363281-79.695313 115.960937-28.679687 11.019531-60.425781 11.019531-89.105469 0-47.871094-18.601562-79.480468-64.601562-79.679687-115.960937zm-33.203125 10.902344c2.078125-3.257813 3.175781-7.039063 3.160156-10.902344.011719-3.867188-1.082031-7.660156-3.148438-10.929688-4.925781-7.734375-6.550781-17.113281-4.511718-26.046875 2.035156-8.9375 7.566406-16.6875 15.355468-21.519531 5.960938-3.714844 9.597657-10.234375 9.625-17.261719-.003906-.804687-.058593-1.605469-.15625-2.402343-.152343-1.347657-.234374-2.703126-.242187-4.058594-.007813-17.527344 13.214844-32.234375 30.644531-34.082032 7.859375-.816406 14.527344-6.125 17.085938-13.597656 2.96875-8.679687 9.292968-15.808594 17.558594-19.789062 8.261718-3.980469 17.777343-4.480469 26.414062-1.386719 7.417969 2.613281 15.679688.734375 21.234375-4.835937 6.449219-6.535157 15.246094-10.210938 24.425781-10.210938 9.179688 0 17.976563 3.675781 24.425782 10.210938 5.554687 5.542968 13.789062 7.425781 21.199218 4.84375 8.636719-3.101563 18.15625-2.609376 26.429688 1.367187 8.269531 3.976563 14.597656 11.105469 17.570312 19.789063 2.558594 7.46875 9.222656 12.773437 17.074219 13.597656 17.429687 1.84375 30.660156 16.546875 30.65625 34.074218-.007813 1.351563-.085937 2.703126-.242187 4.046876-.097657.808593-.148438 1.617187-.15625 2.433593.023437 7.015625 3.648437 13.53125 9.597656 17.25 7.796875 4.828125 13.335937 12.574219 15.378906 21.515625 2.042969 8.9375.421875 18.320313-4.5 26.054688-2.070312 3.273437-3.167969 7.070312-3.160156 10.941406-.015625 3.847656 1.070312 7.621094 3.136718 10.867188 4.925782 7.738281 6.550782 17.125 4.511719 26.066406-2.039062 8.945312-7.570312 16.699218-15.367187 21.535156-5.980469 3.707031-9.617188 10.25-9.597656 17.289062.007812.800782.058593 1.601563.15625 2.398438.152343 1.347656.234374 2.703125.242187 4.058594.027344 17.535156-13.222656 32.246094-30.664063 34.046875-3.855468.414062-7.515624 1.917969-10.554687 4.332031-3.007813 2.40625-5.269531 5.617188-6.519531 9.261719-1.746094 5.070312-4.675782 9.652343-8.539063 13.367187v160.613282c0 2.5-1.332031 4.808593-3.496093 6.0625-2.164063 1.25-4.832032 1.253906-6.996094.007812l-70.589844-40.597656-70.585938 40.597656c-2.167968 1.246094-4.835937 1.242188-7-.007812-2.160156-1.253907-3.492187-3.5625-3.492187-6.0625v-81.839844c0-3.867188 3.132813-7 7-7 3.863281 0 7 3.132812 7 7v69.742187l60.078125-34.554687v-91.824219c-6.605469-1.351563-12.660156-4.636719-17.398438-9.429687-5.5625-5.53125-13.773437-7.4375-21.199218-4.917969-1.566406.546875-3.171875.980469-4.800782 1.292969-.644531.132812-1.292968.195312-1.941406.292968-.949218.132813-1.894531.242188-2.847656.292969-.800781.050781-1.601562.066406-2.421875.058594-.816406-.007813-1.554687-.066407-2.332031-.128907-.867188-.070312-1.734375-.128906-2.59375-.269531-.859375-.136719-1.652344-.34375-2.472656-.539062-.683594-.160157-1.382813-.242188-2.054688-.445313v38.023438c0 3.863281-3.136719 7-7 7-3.867188 0-7-3.136719-7-7v-46.347656c-3.871094-3.722657-6.800781-8.308594-8.546875-13.386719-2.5625-7.460938-9.222656-12.757813-17.070313-13.578125-17.445312-1.792969-30.703124-16.503906-30.679687-34.039063.007813-1.355469.089844-2.707031.242187-4.050781.097657-.804688.148438-1.617188.15625-2.429688.015626-7.046874-3.628906-13.597656-9.621093-17.300781-7.789063-4.832031-13.320313-12.578125-15.359375-21.515625-2.039063-8.933594-.414063-18.3125 4.507812-26.042968zm224.523437 140.65625c-1.058593.320312-2.148437.488281-3.234375.703124-.398437.078126-.800781.195313-1.199218.257813-.980469.15625-1.960938.234375-2.953126.304687-.664062.050782-1.320312.097657-2 .109376-.867187 0-1.722656 0-2.589843-.058594-.867188-.054688-1.8125-.15625-2.71875-.277344-.667969-.09375-1.332031-.164062-2-.296875-1.613281-.308594-3.203125-.730469-4.753907-1.273437-7.425781-2.574219-15.671874-.683594-21.226562 4.878906-4.75 4.804687-10.8125 8.09375-17.429688 9.449218v91.824219l60.078126 34.554688zm-207.363281-151.558594c.015625 6.519531-1.839844 12.90625-5.34375 18.402344-2.914062 4.574218-3.875 10.128906-2.667969 15.421874 1.210938 5.292969 4.488281 9.878907 9.101563 12.734376 10.117187 6.253906 16.261718 17.308593 16.226562 29.203124-.007812 1.328126-.085937 2.65625-.242187 3.980469-.097657.828125-.148438 1.664063-.15625 2.5-.011719 10.363281 7.820312 19.058594 18.132812 20.117188 13.257813 1.398437 24.503907 10.355469 28.832031 22.964843 1.242188 3.6875 3.542969 6.925782 6.605469 9.320313 1.746094 1.359375 3.703125 2.421875 5.792969 3.144531 4.410156 1.582032 9.230469 1.601563 13.652344.054688 3.675781-1.332032 7.554687-2.007813 11.464844-2 9.179687.03125 17.972656 3.71875 24.425781 10.25 3.832031 3.839844 9.035156 6 14.464843 6 5.425782 0 10.628907-2.160156 14.460938-6 6.449219-6.519532 15.230469-10.199219 24.398438-10.230469 3.929687-.003906 7.828124.679687 11.519531 2.023437 6.574219 2.265626 13.847656 1.0625 19.339843-3.199218 3.078126-2.394532 5.386719-5.636719 6.636719-9.328125 4.320313-12.632813 15.582031-21.605469 28.859375-23 10.3125-1.058594 18.152344-9.753907 18.136719-20.117188-.007813-.839843-.058594-1.679687-.15625-2.515625-.152344-1.316406-.234375-2.640625-.242187-3.964844-.03125-11.882812 6.105468-22.929687 16.210937-29.179687 4.617187-2.863281 7.898437-7.453125 9.109375-12.75 1.207031-5.296875.246094-10.855469-2.671875-15.441406-7.105469-11.242188-7.105469-25.574219 0-36.816407 2.925781-4.582031 3.894531-10.148437 2.683594-15.445312-1.210938-5.300781-4.496094-9.894531-9.121094-12.753906-10.046875-6.28125-16.171875-17.28125-16.210937-29.132813.003906-1.332031.085937-2.660156.242187-3.980469.097656-.832031.152344-1.664062.15625-2.5 0-10.378906-7.839844-19.078124-18.160156-20.160156-13.261719-1.398437-24.507813-10.363281-28.832031-22.976562-1.757813-5.136719-5.503907-9.351563-10.398438-11.703125-4.890625-2.347657-10.523438-2.636719-15.632812-.800781-12.550782 4.335937-26.472657 1.152343-35.890626-8.203126-3.820312-3.863281-9.023437-6.035156-14.453124-6.035156-5.433594 0-10.636719 2.171875-14.457032 6.035156-9.417968 9.375-23.363281 12.554688-35.914062 8.191407-5.109375-1.828125-10.734375-1.53125-15.621094.824219-4.886719 2.351562-8.625 6.566406-10.378906 11.699218-4.328125 12.617188-15.578125 21.578125-28.84375 22.972656-10.3125 1.089844-18.136719 9.789063-18.136719 20.160157.007813.839843.058594 1.675781.15625 2.511719.15625 1.316406.238281 2.640624.242187 3.96875-.042968 11.859374-6.175781 22.867187-16.238281 29.144531-4.617187 2.863281-7.894531 7.460937-9.097656 12.757812-1.203125 5.300781-.230469 10.859375 2.699219 15.4375 3.484375 5.507813 5.328125 11.894531 5.316406 18.414063zm25.273438-23.949219c3.730468 1.011719 7.574218-1.195313 8.585937-4.925781 2.027344-7.476563 4.84375-14.71875 8.398437-21.601563 1.714844-3.425781.355469-7.59375-3.050781-9.351562-3.402343-1.757813-7.589843-.449219-9.390625 2.933593-4.003906 7.765626-7.175781 15.9375-9.460937 24.375-1.003907 3.726563 1.195312 7.558594 4.917969 8.570313zm97.804687 2.371094 17.203125-34.863281 17.199219 34.851562c1.714843 3.464844 5.910156 4.886719 9.378906 3.175781 3.46875-1.710937 4.890625-5.910156 3.179687-9.378906l-23.480468-47.558594c-1.179688-2.390625-3.613282-3.902343-6.277344-3.902343-2.667969 0-5.101562 1.511718-6.28125 3.902343l-21.847656 44.273438-48.796875 7.070312c-2.636719.382813-4.828125 2.230469-5.652344 4.761719s-.140625 5.3125 1.765625 7.175781l35.328125 34.472657-8.335937 48.613281c-.449219 2.625.628906 5.28125 2.785156 6.847656s5.011718 1.773437 7.371094.53125l43.664062-22.960937 43.664062 22.960937c2.359376 1.242187 5.214844 1.035156 7.371094-.53125s3.234375-4.222656 2.785156-6.847656l-8.335937-48.613281 35.316406-34.46875c1.90625-1.863282 2.589844-4.644532 1.765625-7.175782-.824218-2.53125-3.015625-4.378906-5.648437-4.761718l-24.335938-3.527344c-2.488281-.378906-4.984375.605468-6.542969 2.574218-1.558593 1.972657-1.941406 4.628907-1.003906 6.960938s3.054688 3.980469 5.546875 4.320312l10.296875 1.492188-27.804687 27.136719c-1.648438 1.609375-2.394531 3.925781-2 6.191406l6.558593 38.257813-34.363281-18.078126c-2.039062-1.074218-4.476562-1.074218-6.515625 0l-34.378906 18.078126 6.5625-38.257813c.390625-2.265625-.355469-4.582031-2-6.191406l-27.816406-27.136719 38.398437-5.566406c2.285157-.328125 4.257813-1.761719 5.28125-3.828125zm0 0"/></svg>