<svg xmlns="http://www.w3.org/2000/svg" viewBox="0 0 128 128" width="256" height="256"><path fill="#6ec7b0" d="M53.8,96.1h1.3c12,0,21.7-9.7,21.7-21.7l0,0c0-3.4-0.8-6.7-2.3-9.7l0,0c-4.2-8.4-4.2-18.2,0-26.6 l2.3-4.6H32.1l2.3,4.6c4.2,8.4,4.2,18.2,0,26.6l0,0c-1.5,3-2.3,6.3-2.3,9.7l0,0C32.1,86.4,41.8,96.1,53.8,96.1z"/><path fill="#63b39e" d="M71.4,51.4c0-2.5,0.3-5,0.9-7.4h-8.9c-1.8,6.9-1,14.2,2.2,20.7c1.5,3,2.3,6.3,2.3,9.7 c0,10.7-7.7,19.6-17.9,21.4c1.2,0.2,2.5,0.3,3.8,0.3h1.3c12,0,21.7-9.7,21.7-21.7c0-3.4-0.8-6.7-2.3-9.7 C72.4,60.5,71.3,55.9,71.4,51.4z"/><path fill="#fff" d="M36.3 43.9L72.5 43.9 76.8 33.4 32.1 33.4z"/><path fill="#e6e6e6" d="M63.4,43.9h8.9c0.5-2,1.2-4,2.2-5.9l2.3-4.6h-8.9L65.6,38C64.6,39.9,63.9,41.9,63.4,43.9z"/><path fill="#fff" d="M46.8 70.2A2.2 2.2 0 1 0 46.8 74.60000000000001 2.2 2.2 0 1 0 46.8 70.2zM46.8 79.1A2.2 2.2 0 1 0 46.8 83.5 2.2 2.2 0 1 0 46.8 79.1zM55.8 79.1A2.2 2.2 0 1 0 55.8 83.5 2.2 2.2 0 1 0 55.8 79.1zM46 55.2L46 55.2c-1.7 0-3-1.4-2.9-3 .2-6.1-1.3-11.5-4.5-16.1-.9-1.3-.6-3.2.8-4.1 1.3-.9 3.2-.6 4.1.8 3.9 5.7 5.7 12.3 5.5 19.6C48.9 53.9 47.6 55.2 46 55.2z"/><path fill="#454b54" d="M72.3,111H58.1V98.9C70.3,97.4,79.8,87,79.8,74.3c0-3.8-0.9-7.6-2.6-11.1c-3.7-7.5-3.7-16.5,0-24 l2.3-4.6c0.5-0.9,0.4-2-0.1-2.9s-1.5-1.4-2.6-1.4H46.7l-6.1-16c-0.4-1.2-1.6-1.9-2.8-1.9H28c-1.7,0-3,1.3-3,3s1.3,3,3,3h7.7 l4.5,11.9H32c-1,0-2,0.5-2.6,1.4c-0.5,0.9-0.6,2-0.1,2.9l2.3,4.6c3.7,7.5,3.7,16.5,0,24c-1.7,3.4-2.6,7.2-2.6,11.1 C29,87.4,39.2,98.1,52,99v12H36.6c-1.7,0-3,1.3-3,3s1.3,3,3,3h35.8c1.7,0,3-1.3,3-3S74,111,72.3,111z M35.1,74.3 c0-2.9,0.7-5.8,2-8.4c4.6-9.2,4.6-20.1,0-29.3L37,36.3h7.7l0,0l0,0H72l-0.1,0.3c-4.6,9.2-4.6,20.1,0,29.3c1.3,2.6,2,5.5,2,8.4 c0,10.3-8.4,18.7-18.7,18.7h-1.3C43.5,93.1,35.1,84.7,35.1,74.3z"/><path fill="#faf290" d="M100.8,36.1L80.3,15.5l-29.1,0.1c-2.4,5.7,6.8,14.9,20.5,20.6S98.4,41.8,100.8,36.1z"/><path fill="#e1d981" d="M79.6,16.7l7.2,23.5c7.1,0.8,12.6-0.6,14-4.1L79.6,16.7z"/><path fill="#454b54" d="M91.7,43.4L91.7,43.4c-6.1,0.3-13.6-1.3-21.2-4.4c-13.4-5.5-25.6-16-22.1-24.5 c0.5-1.1,1.5-1.8,2.8-1.9l29.1-0.1c0.8,0,1.6,0.3,2.1,0.9L102.9,34c0.9,0.9,1.1,2.1,0.6,3.3C102,40.9,97.8,43.1,91.7,43.4z M54,18.5 c1.1,3.8,7.6,10.2,18.9,14.9c6.7,2.8,13.4,4.2,18.6,4c2.2-0.1,4-0.5,5.2-1.1L79,18.5H54z"/></svg>