<?xml version="1.0" encoding="iso-8859-1"?>
<!-- Generator: Adobe Illustrator 21.1.0, SVG Export Plug-In . SVG Version: 6.00 Build 0)  -->
<svg xmlns="http://www.w3.org/2000/svg" xmlns:xlink="http://www.w3.org/1999/xlink" version="1.1" id="Layer_1" x="0px" y="0px" viewBox="0 0 64 64" style="enable-background:new 0 0 64 64;" xml:space="preserve">
<g>
	<path style="fill:#72CAAF;" d="M27,59H9c-1.105,0-2-0.895-2-2V7c0-1.105,0.895-2,2-2h18c1.105,0,2,0.895,2,2v50   C29,58.105,28.105,59,27,59z"/>
	<polygon style="fill:#F9E3AE;" points="21.46,32.26 22.28,37.06 18,34.81 17.97,34.79 13.66,37.06 14.49,32.26 11,28.86    15.82,28.16 17.97,23.79 18,23.85 20.13,28.16 24.94,28.86  "/>
	<path style="fill:#ED7899;" d="M55,59H37c-1.105,0-2-0.895-2-2V7c0-1.105,0.895-2,2-2h18c1.105,0,2,0.895,2,2v50   C57,58.105,56.105,59,55,59z"/>
	<polygon style="fill:#F9E3AE;" points="45.972,23.795 48.127,28.16 52.944,28.86 49.458,32.258 50.281,37.056 45.972,34.791    41.663,37.056 42.486,32.258 39,28.86 43.818,28.16  "/>
	<path style="fill:#5DBC9D;" d="M29,59H7V48c0-1.657,1.343-3,3-3h16c1.657,0,3,1.343,3,3V59z"/>
	<path style="fill:#E0678F;" d="M57,59H35V48c0-1.657,1.343-3,3-3h16c1.657,0,3,1.343,3,3V59z"/>
	<polygon style="fill:#F6D397;" points="21.46,32.26 22.28,37.06 18,34.81 18,23.85 20.13,28.16 24.94,28.86  "/>
	<polygon style="fill:#F6D397;" points="49.46,32.26 50.28,37.06 46,34.81 46,23.85 48.13,28.16 52.94,28.86  "/>
	<path style="fill:#97E0BB;" d="M26,9H10C8.343,9,7,7.657,7,6V5h22v1C29,7.657,27.657,9,26,9z"/>
	<path style="fill:#F283A5;" d="M54,9H38c-1.657,0-3-1.343-3-3V5h22v1C57,7.657,55.657,9,54,9z"/>
	<g>
		<path style="fill:#8D6C9F;" d="M27,4H9C7.346,4,6,5.346,6,7v50c0,1.654,1.346,3,3,3h18c1.654,0,3-1.346,3-3V7    C30,5.346,28.654,4,27,4z M28,57c0,0.552-0.448,1-1,1H9c-0.552,0-1-0.448-1-1v-5c0.553,0,1-0.447,1-1v-2c0-0.553-0.447-1-1-1V7    c0-0.552,0.448-1,1-1h18c0.552,0,1,0.448,1,1v41c-0.553,0-1,0.447-1,1v2c0,0.553,0.447,1,1,1V57z"/>
		<path style="fill:#8D6C9F;" d="M25,54H11c-0.553,0-1,0.447-1,1s0.447,1,1,1h14c0.553,0,1-0.447,1-1S25.553,54,25,54z"/>
		<path style="fill:#8D6C9F;" d="M25,44H11c-0.553,0-1,0.447-1,1s0.447,1,1,1h14c0.553,0,1-0.447,1-1S25.553,44,25,44z"/>
		<path style="fill:#8D6C9F;" d="M25,8H11c-0.553,0-1,0.447-1,1s0.447,1,1,1h14c0.553,0,1-0.447,1-1S25.553,8,25,8z"/>
		<path style="fill:#8D6C9F;" d="M25.896,28.552c-0.118-0.362-0.431-0.626-0.808-0.681l-4.297-0.625l-1.923-3.894    c-0.336-0.684-1.457-0.684-1.793,0l-1.922,3.894l-4.297,0.625c-0.377,0.055-0.689,0.318-0.808,0.681    c-0.117,0.361-0.02,0.759,0.253,1.024l3.11,3.031l-0.734,4.28c-0.064,0.375,0.09,0.754,0.397,0.978    c0.31,0.226,0.717,0.254,1.054,0.076l3.843-2.021l3.844,2.021c0.146,0.077,0.307,0.115,0.466,0.115    c0.207,0,0.414-0.064,0.588-0.191c0.308-0.224,0.462-0.603,0.397-0.978l-0.734-4.28l3.11-3.031    C25.915,29.311,26.013,28.913,25.896,28.552z M20.76,31.542c-0.235,0.229-0.343,0.561-0.287,0.885l0.48,2.802l-2.516-1.322    c-0.146-0.077-0.306-0.115-0.466-0.115s-0.319,0.038-0.466,0.115l-2.515,1.322l0.48-2.802c0.056-0.324-0.052-0.655-0.287-0.885    l-2.035-1.983l2.812-0.409c0.326-0.047,0.607-0.252,0.753-0.547l1.258-2.549l1.259,2.549c0.146,0.295,0.427,0.5,0.753,0.547    l2.812,0.409L20.76,31.542z"/>
		<path style="fill:#8D6C9F;" d="M19,51v-2c0-0.553-0.447-1-1-1s-1,0.447-1,1v2c0,0.553,0.447,1,1,1S19,51.553,19,51z"/>
		<path style="fill:#8D6C9F;" d="M14,51v-2c0-0.553-0.447-1-1-1s-1,0.447-1,1v2c0,0.553,0.447,1,1,1S14,51.553,14,51z"/>
		<path style="fill:#8D6C9F;" d="M24,51v-2c0-0.553-0.447-1-1-1s-1,0.447-1,1v2c0,0.553,0.447,1,1,1S24,51.553,24,51z"/>
		<path style="fill:#8D6C9F;" d="M55,4H37c-1.654,0-3,1.346-3,3v50c0,1.654,1.346,3,3,3h18c1.654,0,3-1.346,3-3V7    C58,5.346,56.654,4,55,4z M56,57c0,0.552-0.448,1-1,1H37c-0.552,0-1-0.448-1-1v-5c0.553,0,1-0.447,1-1v-2c0-0.553-0.447-1-1-1V7    c0-0.552,0.448-1,1-1h18c0.552,0,1,0.448,1,1v41c-0.553,0-1,0.447-1,1v2c0,0.553,0.447,1,1,1V57z"/>
		<path style="fill:#8D6C9F;" d="M53,54H39c-0.553,0-1,0.447-1,1s0.447,1,1,1h14c0.553,0,1-0.447,1-1S53.553,54,53,54z"/>
		<path style="fill:#8D6C9F;" d="M53,44H39c-0.553,0-1,0.447-1,1s0.447,1,1,1h14c0.553,0,1-0.447,1-1S53.553,44,53,44z"/>
		<path style="fill:#8D6C9F;" d="M53,8H39c-0.553,0-1,0.447-1,1s0.447,1,1,1h14c0.553,0,1-0.447,1-1S53.553,8,53,8z"/>
		<path style="fill:#8D6C9F;" d="M53.896,28.552c-0.118-0.362-0.431-0.626-0.808-0.681l-4.297-0.625l-1.923-3.894    c-0.336-0.684-1.457-0.684-1.793,0l-1.922,3.894l-4.297,0.625c-0.377,0.055-0.689,0.318-0.808,0.681    c-0.117,0.361-0.02,0.759,0.253,1.024l3.11,3.031l-0.734,4.28c-0.064,0.375,0.09,0.754,0.397,0.978    c0.31,0.226,0.718,0.254,1.054,0.076l3.843-2.021l3.844,2.021c0.146,0.077,0.307,0.115,0.466,0.115    c0.207,0,0.414-0.064,0.588-0.191c0.308-0.224,0.462-0.603,0.397-0.978l-0.734-4.28l3.11-3.031    C53.915,29.311,54.013,28.913,53.896,28.552z M48.76,31.542c-0.235,0.229-0.343,0.561-0.287,0.885l0.48,2.802l-2.516-1.322    c-0.146-0.077-0.306-0.115-0.466-0.115s-0.319,0.038-0.466,0.115l-2.515,1.322l0.48-2.802c0.056-0.324-0.052-0.655-0.287-0.885    l-2.035-1.983l2.812-0.409c0.326-0.047,0.607-0.252,0.753-0.547l1.258-2.549l1.259,2.549c0.146,0.295,0.427,0.5,0.753,0.547    l2.812,0.409L48.76,31.542z"/>
		<path style="fill:#8D6C9F;" d="M47,51v-2c0-0.553-0.447-1-1-1s-1,0.447-1,1v2c0,0.553,0.447,1,1,1S47,51.553,47,51z"/>
		<path style="fill:#8D6C9F;" d="M42,51v-2c0-0.553-0.447-1-1-1s-1,0.447-1,1v2c0,0.553,0.447,1,1,1S42,51.553,42,51z"/>
		<path style="fill:#8D6C9F;" d="M52,51v-2c0-0.553-0.447-1-1-1s-1,0.447-1,1v2c0,0.553,0.447,1,1,1S52,51.553,52,51z"/>
	</g>
</g>
</svg>
