<?xml version="1.0" encoding="utf-8"?>
<!-- Generator: Adobe Illustrator 21.1.0, SVG Export Plug-In . SVG Version: 6.00 Build 0)  -->
<svg version="1.1" id="Layer_1" xmlns="http://www.w3.org/2000/svg" xmlns:xlink="http://www.w3.org/1999/xlink" x="0px" y="0px" viewBox="0 0 128 128" style="enable-background:new 0 0 128 128;" xml:space="preserve">

<g>
	<g>
		<g>
			<g>
				<g>
					<polygon points="88,46 88,36 40,36 40,46 36,46 36,56 92,56 92,46 					" style="fill:#E8F2FC;"/>
				</g>
			</g>
		</g>
	</g>
</g>
<g>
	<g>
		<g>
			<g>
				<g>
					<polygon points="64,36 40,36 40,46 36,46 36,56 64,56 					" style="fill:#FFFFFF;"/>
				</g>
			</g>
		</g>
	</g>
</g>
<g>
	<g>
		<g>
			<g>
				<g>
					<polygon points="82,124 46,124 40,56 88,56 					" style="fill:#FFFFFF;"/>
				</g>
			</g>
		</g>
	</g>
</g>
<g>
	<g>
		<g>
			<g>
				<g>
					<path d="M82.7,115.3L88,56H40l0.3,4h29.2c3.5,0,6.3,3,6,6.5L70.8,114H64H45.2l0.3,4H63c3.3,0,6,2.7,6,6v0h13l0.5-6
						l0,0L82.7,115.3z" style="fill:#E8F2FC;"/>
				</g>
			</g>
		</g>
	</g>
</g>
<g>
	<g>
		<g>
			<g>
				<g>
					<path d="M40,56l5.2,58h6l-1-36.3C50.1,70,52.1,62.5,56,56l0,0H40z" style="fill:#FFFFFF;"/>
				</g>
			</g>
		</g>
	</g>
</g>
<g>
	<g>
		<g>
			<g>
				<g>
					<path d="M53.9,60c0.6-1.4,1.3-2.7,2.1-4H40l0.3,4H53.9z" style="fill:#E8F2FC;"/>
				</g>
			</g>
		</g>
	</g>
</g>
<g>
	<g>
		<g>
			<g>
				<g>
					<polygon points="89.8,74 86.8,114 41.2,114 38.2,74 					" style="fill:#FFDBAB;"/>
				</g>
			</g>
		</g>
	</g>
</g>
<g>
	<g>
		<g>
			<g>
				<g>
					<g>
						<polygon points="76.8,74 73.8,114 86.8,114 89.8,74 						" style="fill:#DB9683;"/>
					</g>
				</g>
			</g>
		</g>
	</g>
	<g>
		<g>
			<g>
				<g>
					<g>
						<path d="M38.2,74l3.1,40h6l-2.3-33.1c-0.2-2.5,0.6-5,2.3-6.9h0H38.2z" style="fill:#FFFFFF;"/>
					</g>
				</g>
			</g>
		</g>
	</g>
</g>
<g>
	<g>
		<g>
			<path d="M78,2.7c-0.1-0.8-0.5-1.5-1.1-2c-0.6-0.5-1.4-0.7-2.2-0.6c-0.8,0.1-1.5,0.5-2,1.1c-5.6,7-6.5,16.7-2.2,24.6
				l0.9,1.7c0.5,1,1.5,1.6,2.6,1.6c0.5,0,1-0.1,1.4-0.4c0.7-0.4,1.2-1,1.5-1.8c0.2-0.8,0.1-1.6-0.2-2.3l-0.9-1.7
				c-3.1-5.8-2.5-12.8,1.6-18C77.8,4.2,78.1,3.5,78,2.7z" style="fill:#444B54;"/>
		</g>
		<g>
			<path d="M64,29c0.5,0,1-0.1,1.4-0.4c0.7-0.4,1.2-1,1.5-1.8c0.2-0.8,0.1-1.6-0.2-2.3l-0.9-1.7c-1.4-2.5-2-5.4-1.9-8.3
				c0.1-1.7-1.3-3-3-3.1c-1.6,0-2.9,1.3-3,2.9c-0.1,3.9,0.8,7.8,2.7,11.3l0.9,1.7C61.9,28.4,62.9,29,64,29z" style="fill:#444B54;"/>
		</g>
		<g>
			<path d="M52.9,28.8c0.2,0.1,0.4,0.1,0.5,0.2c0.2,0,0.4,0.1,0.6,0.1c0.2,0,0.4,0,0.5-0.1c0.2,0,0.4-0.1,0.6-0.2
				c0.2-0.1,0.3-0.2,0.5-0.3c0.2-0.1,0.3-0.2,0.5-0.4c0.6-0.6,0.9-1.3,0.9-2.1c0-0.2,0-0.4-0.1-0.5c0-0.2-0.1-0.4-0.2-0.6
				c-0.1-0.2-0.2-0.4-0.3-0.5c-0.1-0.2-0.2-0.3-0.4-0.5c-0.1-0.1-0.3-0.3-0.4-0.3c-0.2-0.1-0.3-0.2-0.6-0.3
				c-0.2-0.1-0.4-0.1-0.6-0.2c-0.4-0.1-0.8-0.1-1.1,0c-0.2,0-0.4,0.1-0.6,0.2c-0.2,0.1-0.4,0.2-0.5,0.3c-0.2,0.1-0.3,0.2-0.5,0.4
				c-0.1,0.1-0.3,0.3-0.4,0.4c-0.1,0.2-0.2,0.4-0.3,0.6c-0.1,0.2-0.1,0.4-0.2,0.5c0,0.2-0.1,0.4-0.1,0.6c0,0.8,0.3,1.6,0.9,2.1
				c0.1,0.1,0.3,0.3,0.5,0.4C52.5,28.6,52.7,28.7,52.9,28.8z" style="fill:#444B54;"/>
		</g>
		<g>
			<path d="M37,36v7h-1c-1.7,0-3,1.3-3,3v10c0,1.7,1.3,3,3,3h1.2l0.9,12c-0.8,0-1.6,0.4-2.2,1c-0.6,0.6-0.9,1.4-0.8,2.3
				l3.1,40c0.1,1.6,1.4,2.8,3,2.8h1.2l0.6,7.2c0.1,1.6,1.4,2.8,3,2.8h56c1.7,0,3-1.3,3-3s-1.3-3-3-3H85.2l0.3-4h1.2
				c1.6,0,2.9-1.2,3-2.8l3.1-40c0.1-0.8-0.2-1.7-0.8-2.3c-0.6-0.6-1.4-1-2.2-1l0.9-12H92c1.7,0,3-1.3,3-3V46c0-1.7-1.3-3-3-3h-1v-7
				c0-1.7-1.3-3-3-3H40C38.3,33,37,34.3,37,36z M79.5,117l-0.3,4H48.8l-0.3-4H79.5z M43.2,59h41.5l-0.9,12l-39.7,0L43.2,59z
				 M86.6,77L84,111H44l-2.6-34L86.6,77z M39,53v-4h50v4H39z M43,43v-4h42v4H43z" style="fill:#444B54;"/>
		</g>
		<g>
			<path d="M114.1,121.9c-1.1-1.1-3.1-1.1-4.2,0c-0.6,0.6-0.9,1.3-0.9,2.1c0,0.8,0.3,1.6,0.9,2.1
				c0.6,0.6,1.3,0.9,2.1,0.9s1.6-0.3,2.1-0.9c0.6-0.6,0.9-1.3,0.9-2.1C115,123.2,114.7,122.4,114.1,121.9z" style="fill:#444B54;"/>
		</g>
	</g>
</g>
</svg>
