<svg xmlns="http://www.w3.org/2000/svg" xmlns:xlink="http://www.w3.org/1999/xlink" id="Layer_1" x="0" y="0" enable-background="new 0 0 128 128" version="1.1" viewBox="0 0 128 128" xml:space="preserve"><g><g><g><g><g><path fill="#825559" d="M107.7,100.7L107.7,100.7c-11.7-2.6-23.8-2.6-35.5,0l0,0c-1.5,0.3-2.9-0.7-3.1-2.1l-0.6-4.3 c-1.9-13,8.3-24.6,21.5-24.6h0c13.2,0,23.3,11.6,21.5,24.6l-0.6,4.3C110.6,100,109.2,101,107.7,100.7z"/></g></g><g><g><path fill="#CADBEA" d="M98.9,99.3l2.5,14c1,5.5-3.3,10.6-8.9,10.6H87c-5.7,0-9.9-5.1-8.9-10.6l2.5-13.8"/></g></g><g><g><path fill="#444B54" d="M92.5,126.8H87c-3.6,0-7-1.6-9.3-4.3c-2.3-2.7-3.2-6.3-2.6-9.8l1.1-6.1c0.3-1.6,1.8-2.7,3.5-2.4 c1.6,0.3,2.7,1.9,2.4,3.5l-1.1,6.1c-0.3,1.8,0.2,3.5,1.3,4.9c1.2,1.4,2.9,2.2,4.7,2.2h5.5c1.8,0,3.5-0.8,4.7-2.2 c1.1-1.4,1.6-3.2,1.3-4.9l-1.1-6.3c-0.3-1.6,0.8-3.2,2.4-3.5c1.6-0.3,3.2,0.8,3.5,2.4l1.1,6.3c0.6,3.5-0.3,7.1-2.6,9.8 C99.5,125.2,96.1,126.8,92.5,126.8z"/></g></g><g><g><path fill="#444B54" d="M71.7,103.8c-1.1,0-2.2-0.3-3.2-1c-1.3-0.9-2.1-2.3-2.3-3.8l-0.6-4.3c-0.2-1.6,0.9-3.2,2.5-3.4 c1.6-0.2,3.2,0.9,3.4,2.5l0.6,3.8c11.8-2.5,24.1-2.5,35.9,0l0.6-3.8c0.8-5.3-0.8-10.7-4.3-14.7c-3.6-4.1-8.7-6.5-14.2-6.5 c-0.9,0-1.9,0.1-2.8,0.2c-1.6,0.2-3.2-0.9-3.4-2.5c-0.2-1.6,0.9-3.2,2.5-3.4c1.2-0.2,2.4-0.3,3.7-0.3c7.2,0,14,3.1,18.7,8.5 c4.7,5.4,6.7,12.5,5.7,19.5l-0.6,4.3c-0.2,1.5-1.1,2.9-2.3,3.8c-1.3,0.9-2.9,1.2-4.4,0.9c-11.2-2.5-23-2.5-34.2,0 C72.5,103.7,72.1,103.8,71.7,103.8z"/></g></g></g><g><g><g><path fill="#FFF" d="M56.4,82.9l4.2,23.4c1.7,9.2-5.5,17.7-14.9,17.7h-9.2c-9.4,0-16.6-8.5-14.9-17.7l4.2-23"/></g></g><g><g><g><path fill="#CADBEA" d="M60.6,106.3l-2.1-11.4c-0.4-2.4-2.5-4.1-4.9-4h0c-3,0.1-5.3,2.8-4.7,5.8l1.7,9.6 c1.6,9.1-5.3,17.5-14.5,17.7c0.1,0,0.3,0,0.4,0h9.2C55.1,124,62.2,115.5,60.6,106.3z"/></g></g></g><g><g><path fill="#BA7879" d="M70.6,84.8L70.6,84.8c-19.5-4.3-39.7-4.3-59.2,0l0,0c-2.4,0.5-4.8-1.1-5.2-3.5l-1-7.2 c-3.1-21.6,13.8-41,35.8-41h0c22,0,38.9,19.4,35.8,41l-1,7.2C75.4,83.7,73.1,85.3,70.6,84.8z"/></g></g><g><g><path fill="#BA7879" d="M70.6,84.8L70.6,84.8c-19.5-4.3-39.7-4.3-59.2,0l0,0c-2.4,0.5-4.8-1.1-5.2-3.5l-1-7.2 c-3.1-21.6,13.8-41,35.8-41h0c22,0,38.9,19.4,35.8,41l-1,7.2C75.4,83.7,73.1,85.3,70.6,84.8z"/></g></g><g><g><g><path fill="#BA7879" d="M6.6,82.3c0.8,1.8,2.8,2.9,4.8,2.5h0c6.5-1.4,13-2.4,19.6-2.9C22.9,81.4,14.7,81.5,6.6,82.3z"/></g></g><g><g><path fill="#825559" d="M58.5,40c-3.6-1.5-6.9,2.6-4.9,6c0.1,0.2,0.2,0.4,0.3,0.6c3.6,7.4,4.4,17.2,2.9,27.5c0,0,0,0,0,0 c-0.7,4.5,2.4,8.6,6.8,9.4c2.3,0.4,4.7,0.8,7,1.4h0c2.4,0.5,4.8-1.1,5.2-3.5l1-7.2c1.4-10.1-1.4-19.7-7.2-27 C67.5,44.3,63.3,42,58.5,40z"/></g></g></g><g><g><path fill="#444B54" d="M10.5,87.9c-1.5,0-2.9-0.4-4.2-1.3c-1.7-1.1-2.8-2.9-3.1-4.9l-1-7.2C0.7,63.4,4,52.1,11.4,43.6 c7.4-8.6,18.2-13.5,29.7-13.5S63.3,35,70.7,43.6c7.4,8.5,10.7,19.8,9.1,30.9l-1,7.2c-0.3,2-1.4,3.8-3.1,4.9 c-1.7,1.1-3.7,1.6-5.7,1.1l0,0c-14.3-3.2-28.9-4-43.5-2.4c-4.8,0.5-9.7,1.3-14.4,2.4C11.6,87.8,11.1,87.9,10.5,87.9z M41.1,36.1c-9.7,0-18.8,4.2-25.1,11.4c-6.2,7.2-9,16.7-7.7,26.1l1,7.2c0.1,0.5,0.4,0.7,0.5,0.8c0.2,0.1,0.5,0.3,1,0.2 c4.9-1.1,10-1.9,15-2.5c15.2-1.7,30.5-0.8,45.4,2.5c0,0,0,0,0,0c0.5,0.1,0.8-0.1,1-0.2c0.2-0.1,0.5-0.4,0.5-0.8l1-7.2 c1.4-9.4-1.5-18.9-7.7-26.1C59.9,40.3,50.7,36.1,41.1,36.1z"/></g></g><g><g><path fill="#444B54" d="M24.9,90.2c-0.1,0-0.2,0-0.3,0c-5.6-0.6-11-1.4-16-2.5c-1.6-0.4-2.6-2-2.3-3.6c0.4-1.6,2-2.6,3.6-2.3 c4.8,1.1,10,1.9,15.4,2.4c1.6,0.2,2.8,1.6,2.7,3.3C27.7,89,26.4,90.2,24.9,90.2z"/></g></g><g><g><path fill="#444B54" d="M57.4,90.2c-1.5,0-2.8-1.2-3-2.7c-0.2-1.6,1-3.1,2.7-3.3c5.1-0.5,9.9-1.3,14.5-2.3 c1.6-0.4,3.2,0.7,3.6,2.3s-0.7,3.2-2.3,3.6c-4.8,1.1-9.9,1.9-15.2,2.4C57.6,90.2,57.5,90.2,57.4,90.2z"/></g></g><g><g><path fill="#444B54" d="M45.7,127h-9.2c-5.4,0-10.5-2.4-14-6.5c-3.4-4.1-4.9-9.5-3.9-14.7l1.5-8.8c0.3-1.6,1.8-2.7,3.5-2.4 c1.6,0.3,2.7,1.8,2.4,3.5l-1.5,8.9c-0.6,3.5,0.3,7.1,2.6,9.8c2.3,2.8,5.7,4.4,9.4,4.4h9.2c3.6,0,7-1.6,9.4-4.4 c2.3-2.7,3.2-6.3,2.6-9.8l-4.2-23.4c-0.3-1.6,0.8-3.2,2.4-3.5c1.6-0.3,3.2,0.8,3.5,2.4l4.2,23.4c0.9,5.3-0.5,10.6-3.9,14.7 C56.2,124.6,51.1,127,45.7,127z"/></g></g><g><g><path fill="#FFF" d="M13.8,59.2c-0.8,0-1.6-0.3-2.1-0.9c-0.1-0.1-0.3-0.3-0.4-0.5c-0.1-0.2-0.2-0.3-0.3-0.5 c-0.1-0.2-0.1-0.4-0.2-0.6c0-0.2,0-0.4,0-0.6c0-0.2,0-0.4,0-0.6c0-0.2,0.1-0.4,0.2-0.6c0.1-0.2,0.2-0.4,0.3-0.5 c0.1-0.2,0.2-0.3,0.4-0.5c0.7-0.7,1.7-1,2.7-0.8c0.2,0,0.4,0.1,0.6,0.2c0.2,0.1,0.4,0.2,0.5,0.3c0.2,0.1,0.3,0.2,0.5,0.4 c0.1,0.1,0.3,0.3,0.4,0.5c0.1,0.2,0.2,0.3,0.3,0.5c0.1,0.2,0.1,0.4,0.2,0.6c0,0.2,0,0.4,0,0.6c0,0.2,0,0.4,0,0.6 c0,0.2-0.1,0.4-0.2,0.6c-0.1,0.2-0.2,0.3-0.3,0.5c-0.1,0.2-0.2,0.3-0.4,0.5c-0.1,0.1-0.3,0.3-0.5,0.4c-0.2,0.1-0.3,0.2-0.5,0.3 c-0.2,0.1-0.4,0.1-0.6,0.2C14.2,59.1,14,59.2,13.8,59.2z"/></g></g><g><g><path fill="#FFF" d="M20,50.6c-0.8,0-1.6-0.3-2.2-0.9c-1.2-1.2-1.1-3.1,0.1-4.2c4.8-4.7,10.9-7.8,17.5-8.9 c1.6-0.3,3.2,0.8,3.5,2.5s-0.8,3.2-2.5,3.5C31,43.4,26,45.9,22.1,49.8C21.5,50.3,20.7,50.6,20,50.6z"/></g></g></g></g><g><g><path fill="#444B54" d="M109,127H19c-1.7,0-3-1.3-3-3s1.3-3,3-3h90c1.7,0,3,1.3,3,3S110.7,127,109,127z"/></g></g><g><g><path fill="#444B54" d="M124,127c-0.2,0-0.4,0-0.6-0.1c-0.2,0-0.4-0.1-0.6-0.2c-0.2-0.1-0.3-0.2-0.5-0.3 c-0.2-0.1-0.3-0.2-0.4-0.4c-0.1-0.1-0.3-0.3-0.4-0.4c-0.1-0.2-0.2-0.3-0.3-0.5c-0.1-0.2-0.1-0.4-0.2-0.6c0-0.2-0.1-0.4-0.1-0.6 c0-0.2,0-0.4,0.1-0.6c0-0.2,0.1-0.4,0.2-0.6c0.1-0.2,0.2-0.3,0.3-0.5c0.1-0.2,0.2-0.3,0.4-0.4c1.1-1.1,3.1-1.1,4.2,0 c0.1,0.1,0.3,0.3,0.4,0.4c0.1,0.2,0.2,0.3,0.3,0.5c0.1,0.2,0.1,0.4,0.2,0.6c0,0.2,0.1,0.4,0.1,0.6c0,0.8-0.3,1.6-0.9,2.1 C125.6,126.7,124.8,127,124,127z"/></g></g></g></svg>