<?xml version="1.0" encoding="utf-8"?>
<!-- Generator: Adobe Illustrator 16.0.0, SVG Export Plug-In . SVG Version: 6.00 Build 0)  -->
<!DOCTYPE svg PUBLIC "-//W3C//DTD SVG 1.1//EN" "http://www.w3.org/Graphics/SVG/1.1/DTD/svg11.dtd">
<svg version="1.1" id="Layer_1" xmlns="http://www.w3.org/2000/svg" xmlns:xlink="http://www.w3.org/1999/xlink" x="0px" y="0px"
	 width="512px" height="512px" viewBox="0 0 512 512" enable-background="new 0 0 512 512" xml:space="preserve">
<g>
	<g>
		<g>
			<path fill="#D6E5E5" d="M422.4,303.8c-19.3-31.2-45.6-56.8-69.3-84.5c-24.9-29.1-45.7-62.6-76.6-86
				c-12.8-9.7-29.9-19.2-46.6-15.3c-23,5.4-37,27.5-47.8,46.8c-15,26.5-26.5,54.8-40.4,81.8c-14.4,27.9-28.3,56.3-39.2,85.8
				c-0.5,1.3-1.3,2.2-2.2,2.6c-6,11.9-12.2,26-8,38.5c3.5,10.4,13.5,16.6,23.9,19.9c14.1,4.5,29.1,5.8,43.9,6.1
				c33,0.5,65.2-5.6,98-7.1c28.9-1.3,58,0.1,86.9,1.9c22.3,1.4,47.5,3.3,68.3-6.4c14.6-6.8,26.1-20.9,25.8-37.6
				C438.8,333.7,431.1,317.8,422.4,303.8z M271.4,362.7c-9,21.9-51.7,24-48.9-5.2c0.1-1.6,0.8-2.7,1.7-3.4c0.4-4.4,1.3-8.8,3.4-12.6
				c4.4-7.9,12-11.7,21-11.1c8.3,0.5,17.5,4.1,21.9,11.5C273.9,347.8,274,356.4,271.4,362.7z M308.7,251
				c-4.1,9.1-12.2,16.8-21.6,20.4c-5.2,2-11.7,2.8-16.3,6c-5.5,3.8-5,9.7-4.5,15.8c0.8,10.6-1,21.6-12.9,24.9
				c-9,2.4-22.3,1.9-29.1-5.4c-4.5-4.9-5.5-10.4-4.7-16.9c0.4-2.9,1.1-6,0.8-9c-0.4-3.3-1.3-6.6-2-9.9c-1.4-6.5-1.4-12.9,2.5-18.5
				c3-4.3,7.4-7.2,12.1-9.6c9.1-4.7,21.6-9.3,24.4-20c1.8-6.8,1.5-14.9-1.2-21.5c-0.9-2.2-2.5-5.5-5.2-5.9
				c-4.5-0.8-7.7,2.9-10.6,5.7c-4.7,4.5-10,8.6-16.8,8.6c-6.4,0-13.5-3-19.8-1.4c-4.8,1.2-8-3.5-7.2-7c-0.4-0.7-0.7-1.5-0.8-2.4
				c-0.3-2.9-0.2-5.9,0.5-8.7c5.7-21.5,29.3-40.3,51.8-38.2c22.4,2.1,39.5,20.5,50.7,38.7C308.3,212,316.8,233,308.7,251z"/>
		</g>
	</g>
	<g>
		<g>
			<path fill="#FEBF10" d="M261.1,347.8c-2.1-4.6-9-6.3-13.5-6.5c-12.7-0.8-12.8,13.7-12.8,22.9c0,0.5-0.1,0.9-0.2,1.4
				c5.2,6.7,22.5,1.8,26.2-6.2C262.5,355.8,262.7,351.2,261.1,347.8z"/>
		</g>
	</g>
	<g>
		<g>
			<path fill="#FEBF10" d="M296.7,216.3c-3.7-9.1-9-17.6-15.3-25.2c-6.9-8.4-14.9-16.6-25.3-20.4c-11.8-4.2-23.5-1.6-33.1,6.1
				c-7.6,6.1-16.9,15.6-16.4,26.2c3.4,0,6.7,0.5,10.2,1.1c7.2,1.2,11.1-0.4,16.2-5.3c6.1-5.9,14.2-11.1,22.9-7.3
				c12.7,5.5,14.9,24.4,12.9,36.4c-1.5,8.8-6.8,16.4-14,21.6c-4.2,3-8.8,5.3-13.5,7.5c-3.7,1.7-8,3.6-10.6,6.8
				c-3.9,4.7-1.7,10.7-0.5,16c1.3,5.7,1.1,10.8,0.3,16.6c-0.6,5.2,0.1,9.2,5.7,10.8c3.5,1,7.5,1.7,11.1,1.1c4.7-0.8,8.4-2.9,8.3-8.1
				c-0.1-5.9-1.5-12.2-0.2-18.1c3-13.4,14.3-16.2,25.6-20.1c8.7-3.1,16.9-10,19-19.3C302,233.7,300.1,224.6,296.7,216.3z"/>
		</g>
	</g>
	<g>
		<g>
			<path fill="#FEBF10" d="M449.9,274.8c-15.9-22.7-34.6-43.2-52.4-64.5c-17.3-20.7-32.4-42.8-47.9-64.9
				c-15.2-21.8-31.1-43.6-51.4-61C283.8,72,266.5,60.8,247.3,58c-30.2-4.4-53.8,16.6-70.4,39.4c-20.3,27.9-34,60.3-48,91.6
				c-6.2,13.8-12.2,27.8-19.4,41.2c-7,13-14.8,25.6-22.4,38.3c-9.6,16.2-19,32.5-27,49.5c-7.6,16.3-14.5,33.4-17.1,51.4
				c-2.1,14.5-1.1,30.2,8,42.3c12.7,16.9,35.2,22.1,54.9,25.4c0.2,0,0.4,0.1,0.7,0.1c5.1,0.2,10.2,0.3,15.2,0.4
				c65.5,1.2,131.2-3.2,196.7,0.8c28.2,1.7,56.5,5.4,84.7,1.5c25.1-3.5,51.4-13.4,66.8-34.6C499.6,364.5,475.2,310.9,449.9,274.8z
				 M444.7,372.9c-22.4,42.1-78.7,33.2-118,31.4c-31.6-1.4-63.4-2.6-94.8,1.4c-12.4,1.6-24.9,2.9-37.5,3.8
				c-15.8,1.1-31.6,1.5-47.4,0.5c-14.3-1-29.3-3.1-42.4-9.2c-11.1-5.2-20.6-13.9-23.5-26.1c-4.2-18.1,5-35.9,12.9-51.6
				c0.2-0.3,0.3-0.6,0.5-0.8c10.1-26.4,22.5-52.1,35.5-77.2c13.5-26,24.6-53.1,38.6-78.8c11.5-21,25.1-44.7,47.8-55.2
				c16.3-7.5,34.4-5.2,50,2.9c17.8,9.3,32.7,23.5,46,38.3c13.7,15.2,26.1,31.3,38.7,47.4c21.4,27.1,46.5,51,67.2,78.8
				C436.8,303.2,461.5,341.3,444.7,372.9z"/>
		</g>
	</g>
	<g>
		<g>
			<path d="M481,307.1c-22.5-50.6-65.4-88.1-97.5-132.3C353.5,133.5,327.1,85.3,281.5,59c-14.3-8.3-30.8-13.5-47.5-12.4
				c-14.3,0.9-27.8,7.1-39.1,15.8c-26.3,20.2-43,51.7-57.2,81c-13.9,28.7-25,58.9-40.7,86.7c-17,30-36.1,58.8-50.1,90.4
				c-12.8,29-25.5,67.9-5.5,96.6c12.7,18.2,35,25.6,56,29.6c0.9,0.7,2,1.2,3.4,1.3c65.8,2.6,131.7-1.9,197.5,0.5
				c54.1,1.9,116.9,15.7,163.8-19.7c17.6-13.3,28.6-33.2,31.4-55C496.8,350.5,490.4,328.1,481,307.1z M470.1,405.3
				c-15.4,21.2-41.7,31.1-66.8,34.6c-28.2,3.9-56.5,0.3-84.7-1.5c-65.5-4-131.1,0.4-196.7-0.8c-5.1-0.1-10.2-0.2-15.2-0.4
				c-0.2-0.1-0.4-0.1-0.7-0.1c-19.7-3.3-42.2-8.6-54.9-25.4c-9.1-12.1-10.1-27.8-8-42.3c2.6-17.9,9.4-35.1,17.1-51.4
				c8-17,17.4-33.4,27-49.5c7.5-12.7,15.4-25.2,22.4-38.3c7.2-13.4,13.2-27.3,19.4-41.2c14-31.4,27.7-63.7,48-91.6
				c16.6-22.8,40.2-43.8,70.4-39.4c19.2,2.8,36.5,14,50.9,26.4c20.3,17.4,36.2,39.2,51.4,61c15.4,22.1,30.6,44.2,47.9,64.9
				c17.7,21.3,36.4,41.8,52.4,64.5C475.2,310.9,499.6,364.5,470.1,405.3z"/>
		</g>
	</g>
	<g>
		<g>
			<path d="M418.4,278.4c-20.6-27.8-45.8-51.7-67.2-78.8c-12.6-16-25.1-32.2-38.7-47.4c-13.3-14.8-28.2-29-46-38.3
				c-15.6-8.1-33.7-10.4-50-2.9c-22.7,10.5-36.3,34.2-47.8,55.2c-14,25.7-25.1,52.8-38.6,78.8c-13,25.1-25.4,50.8-35.5,77.2
				c-0.2,0.3-0.4,0.5-0.5,0.8c-7.9,15.6-17.1,33.5-12.9,51.6c2.8,12.3,12.4,20.9,23.5,26.1c13.1,6.2,28.1,8.3,42.4,9.2
				c15.8,1.1,31.6,0.6,47.4-0.5c12.5-0.9,25-2.2,37.5-3.8c31.4-4,63.2-2.8,94.8-1.4c39.3,1.8,95.6,10.7,118-31.4
				C461.5,341.3,436.8,303.2,418.4,278.4z M413.2,388c-20.8,9.7-46,7.8-68.3,6.4c-28.9-1.8-57.9-3.2-86.9-1.9
				c-32.8,1.5-65,7.6-98,7.1c-14.7-0.2-29.8-1.6-43.9-6.1c-10.4-3.3-20.4-9.5-23.9-19.9c-4.2-12.6,2-26.7,8-38.5
				c0.9-0.5,1.7-1.3,2.2-2.6c10.9-29.5,24.8-57.9,39.2-85.8c13.9-27.1,25.4-55.3,40.4-81.8c10.9-19.2,24.8-41.4,47.8-46.8
				c16.7-3.9,33.8,5.6,46.6,15.3c30.9,23.4,51.7,56.9,76.6,86c23.8,27.7,50,53.3,69.3,84.5c8.7,14,16.4,29.9,16.6,46.6
				C439.2,367.1,427.8,381.2,413.2,388z"/>
		</g>
	</g>
	<g>
		<g>
			<path d="M270.4,341.9c-4.4-7.5-13.6-11-21.9-11.5c-9-0.5-16.6,3.2-21,11.1c-2.1,3.8-3,8.2-3.4,12.6c-0.9,0.7-1.5,1.8-1.7,3.4
				c-2.8,29.2,40,27.1,48.9,5.2C274,356.4,273.9,347.8,270.4,341.9z M260.9,359.2c-3.7,8-21,12.9-26.2,6.2c0.1-0.4,0.2-0.9,0.2-1.4
				c0-9.2,0-23.6,12.8-22.9c4.5,0.3,11.4,2,13.5,6.5C262.7,351.2,262.5,355.8,260.9,359.2z"/>
		</g>
	</g>
	<g>
		<g>
			<path d="M298.7,196.4c-11.2-18.2-28.3-36.6-50.7-38.7c-22.5-2.1-46.1,16.8-51.8,38.2c-0.7,2.8-0.8,5.9-0.5,8.7
				c0.1,1,0.4,1.8,0.8,2.4c-0.8,3.5,2.4,8.2,7.2,7c6.3-1.6,13.4,1.5,19.8,1.4c6.8,0,12.2-4.2,16.8-8.6c2.9-2.8,6.1-6.4,10.6-5.7
				c2.7,0.5,4.3,3.7,5.2,5.9c2.7,6.6,3,14.7,1.2,21.5c-2.8,10.7-15.2,15.3-24.4,20c-4.6,2.4-9,5.3-12.1,9.6
				c-3.9,5.6-3.9,12-2.5,18.5c0.7,3.3,1.6,6.5,2,9.9c0.4,3-0.4,6-0.8,9c-0.8,6.5,0.2,12,4.7,16.9c6.8,7.3,20.2,7.9,29.1,5.4
				c11.8-3.2,13.7-14.2,12.9-24.9c-0.5-6-1-11.9,4.5-15.8c4.7-3.3,11.1-4,16.3-6c9.3-3.6,17.5-11.3,21.6-20.4
				C316.8,233,308.3,212,298.7,196.4z M300,242.6c-2.1,9.4-10.3,16.2-19,19.3c-11.3,4-22.6,6.8-25.6,20.1
				c-1.3,5.9,0.1,12.1,0.2,18.1c0.1,5.2-3.6,7.3-8.3,8.1c-3.6,0.6-7.6-0.1-11.1-1.1c-5.6-1.6-6.4-5.6-5.7-10.8
				c0.7-5.8,1-10.8-0.3-16.6c-1.2-5.4-3.4-11.3,0.5-16c2.6-3.2,7-5.1,10.6-6.8c4.7-2.2,9.3-4.4,13.5-7.5c7.2-5.2,12.5-12.8,14-21.6
				c2-11.9-0.2-30.9-12.9-36.4c-8.7-3.8-16.8,1.4-22.9,7.3c-5.1,4.9-9,6.5-16.2,5.3c-3.6-0.6-6.9-1.1-10.2-1.1
				c-0.5-10.6,8.8-20.1,16.4-26.2c9.6-7.7,21.3-10.3,33.1-6.1c10.4,3.7,18.5,11.9,25.3,20.4c6.2,7.6,11.5,16.1,15.3,25.2
				C300.1,224.6,302,233.7,300,242.6z"/>
		</g>
	</g>
</g>
</svg>
