<?xml version="1.0" encoding="iso-8859-1"?>
<!-- Generator: Adobe Illustrator 23.0.0, SVG Export Plug-In . SVG Version: 6.00 Build 0)  -->
<svg xmlns="http://www.w3.org/2000/svg" xmlns:xlink="http://www.w3.org/1999/xlink" version="1.1" id="Layer_1" x="0px" y="0px" viewBox="0 0 64 64" style="enable-background:new 0 0 64 64;" xml:space="preserve">
<g>
	<path style="fill:#F283A5;" d="M22,33h-4c-0.552,0-1-0.448-1-1l0-4.828c0-2.089-1.527-3.955-3.607-4.153   C11.007,22.791,9,24.661,9,27v8.035C9,38.329,11.671,41,14.965,41H20C20.185,39.9,21.8,33.889,22,33z"/>
</g>
<g>
	<path style="fill:#FDEEDD;" d="M47.25,12.75C47.25,10.679,48.929,9,51,9s3.75,1.679,3.75,3.75v2.5c0,2.071-1.679,3.75-3.75,3.75   s-3.75-1.679-3.75-3.75V12.75z"/>
</g>
<g>
	<path style="fill:#FDEEDD;" d="M9.25,12.75C9.25,10.679,10.929,9,13,9s3.75,1.679,3.75,3.75v2.5c0,2.071-1.679,3.75-3.75,3.75   s-3.75-1.679-3.75-3.75V12.75z"/>
</g>
<g>
	<path style="fill:#85CBF8;" d="M50.607,23.019C48.527,23.217,47,25.083,47,27.172V32c0,0.552-0.448,1-1,1h-4l2,8h5.014   C52.32,41,55,38.32,55,35.014V27C55,24.661,52.993,22.791,50.607,23.019z"/>
</g>
<g>
	<path style="fill:#8D6C9F;" d="M19,46h-5C8.486,46,4,41.514,4,36V15c0-0.552,0.448-1,1-1s1,0.448,1,1v21c0,4.411,3.589,8,8,8h5   c0.552,0,1,0.448,1,1S19.552,46,19,46z"/>
</g>
<g>
	<path style="fill:#8D6C9F;" d="M13.491,8.023C10.509,7.739,8,10.076,8,13v2c-0.001,0.611,0.201,1.342,0.48,2   c0.255,0.601,0.657,1.127,1.143,1.562c0.146,0.13,0.296,0.264,0.424,0.378c0.219,0.195,0.453,0.376,0.714,0.509   c1.541,0.785,3.391,0.719,4.881-0.195C16.551,18.654,17,18,17.281,17.595C17.751,16.812,18.004,15.916,18,15v-1.785   C18,10.603,16.091,8.271,13.491,8.023z M16,15c0,1.657-1.343,3-3,3s-3-1.343-3-3v-2c0-1.657,1.343-3,3-3s3,1.343,3,3V15z"/>
</g>
<g>
	<path style="fill:#8D6C9F;" d="M19.438,42H15c-3.86,0-7-3.14-7-7v-8c0-1.406,0.597-2.754,1.637-3.7   c1.04-0.945,2.444-1.412,3.85-1.276C16.018,22.265,18,24.526,18,27.172V32h2.5c0.552,0,1,0.448,1,1s-0.448,1-1,1H18   c-1.103,0-2-0.897-2-2v-4.828c0-1.626-1.187-3.013-2.702-3.157c-0.858-0.083-1.682,0.189-2.315,0.765   C10.358,25.347,10,26.157,10,27v8c0,2.757,2.243,5,5,5h4.438c0.552,0,1,0.448,1,1S19.99,42,19.438,42z"/>
</g>
<g>
	<path style="fill:#8D6C9F;" d="M46,13.215V15c-0.004,0.916,0.249,1.812,0.719,2.595C47,18,47.449,18.654,48.357,19.254   c1.49,0.914,3.34,0.98,4.881,0.195c0.261-0.133,0.495-0.314,0.714-0.509c0.128-0.114,0.278-0.248,0.424-0.378   c0.486-0.435,0.888-0.961,1.143-1.562c0.28-0.658,0.481-1.389,0.48-2v-2c0-2.924-2.509-5.261-5.491-4.977   C47.909,8.271,46,10.603,46,13.215z M48,13c0-1.657,1.343-3,3-3s3,1.343,3,3v2c0,1.657-1.343,3-3,3s-3-1.343-3-3V13z"/>
</g>
<g>
	<path style="fill:#8D6C9F;" d="M49,42h-4.5c-0.552,0-1-0.448-1-1s0.448-1,1-1H49c2.757,0,5-2.243,5-5v-8   c0-0.843-0.358-1.653-0.982-2.221c-0.634-0.576-1.46-0.848-2.315-0.765C49.187,24.159,48,25.546,48,27.172V32c0,1.103-0.897,2-2,2   h-2.438c-0.552,0-1-0.448-1-1s0.448-1,1-1H46v-4.828c0-2.646,1.982-4.907,4.513-5.148c1.407-0.136,2.81,0.331,3.85,1.276   C55.403,24.246,56,25.594,56,27v8C56,38.86,52.86,42,49,42z"/>
</g>
<g>
	<path style="fill:#8D6C9F;" d="M50,46h-5c-0.552,0-1-0.448-1-1s0.448-1,1-1h5c4.411,0,8-3.589,8-8V15c0-0.552,0.448-1,1-1   s1,0.448,1,1v21C60,41.514,55.514,46,50,46z"/>
</g>
<g>
	<path style="fill:#8D6C9F;" d="M5,58c-0.128,0-0.258-0.025-0.384-0.078c-0.51-0.212-0.75-0.798-0.538-1.308l5-12   c0.212-0.509,0.796-0.751,1.308-0.538c0.51,0.212,0.75,0.798,0.538,1.308l-5,12C5.763,57.769,5.391,58,5,58z"/>
</g>
<g>
	<path style="fill:#8D6C9F;" d="M59,58c-0.392,0-0.764-0.232-0.923-0.616l-5-12c-0.212-0.51,0.028-1.095,0.538-1.308   c0.512-0.213,1.096,0.029,1.308,0.538l5,12c0.212,0.51-0.028,1.095-0.538,1.308C59.259,57.976,59.128,58,59,58z"/>
</g>
<g>
	<polygon style="fill:#FAEFDE;" points="42,29 22,29 18,53 46,53  "/>
</g>
<g>
	<path style="fill:#8D6C9F;" d="M46,54H18c-0.294,0-0.573-0.129-0.763-0.354c-0.19-0.225-0.271-0.521-0.223-0.811l4-24   C21.094,28.354,21.511,28,22,28h20c0.489,0,0.906,0.354,0.986,0.835l4,24c0.048,0.29-0.033,0.586-0.223,0.811   C46.573,53.871,46.294,54,46,54z M19.181,52h25.639l-3.667-22H22.847L19.181,52z"/>
</g>
<g>
	<path style="fill:#8D6C9F;" d="M23,58c-0.552,0-1-0.448-1-1v-4c0-0.552,0.448-1,1-1s1,0.448,1,1v4C24,57.552,23.552,58,23,58z"/>
</g>
<g>
	<path style="fill:#8D6C9F;" d="M41,58c-0.552,0-1-0.448-1-1v-4c0-0.552,0.448-1,1-1s1,0.448,1,1v4C42,57.552,41.552,58,41,58z"/>
</g>
<g>
	<path style="fill:#8D6C9F;" d="M24,50c-0.552,0-1-0.448-1-1v-2c0-0.552,0.448-1,1-1s1,0.448,1,1v2C25,49.552,24.552,50,24,50z"/>
</g>
<g>
	<path style="fill:#8D6C9F;" d="M29,50c-0.552,0-1-0.448-1-1v-2c0-0.552,0.448-1,1-1s1,0.448,1,1v2C30,49.552,29.552,50,29,50z"/>
</g>
<g>
	<path style="fill:#8D6C9F;" d="M34,50c-0.552,0-1-0.448-1-1v-2c0-0.552,0.448-1,1-1s1,0.448,1,1v2C35,49.552,34.552,50,34,50z"/>
</g>
<g>
	<path style="fill:#8D6C9F;" d="M39,50c-0.552,0-1-0.448-1-1v-2c0-0.552,0.448-1,1-1s1,0.448,1,1v2C40,49.552,39.552,50,39,50z"/>
</g>
</svg>
