<svg xmlns="http://www.w3.org/2000/svg" xmlns:xlink="http://www.w3.org/1999/xlink" id="Layer_1" x="0" y="0" enable-background="new 0 0 128 128" version="1.1" viewBox="0 0 128 128" xml:space="preserve"><g><path fill="#FF697D" d="M71.5,94H35.8V34h35.7c16.6,0,30,13.4,30,30v0C101.5,80.6,88,94,71.5,94z"/><ellipse cx="35.8" cy="64" fill="#F9A7B5" rx="23.1" ry="30"/><g><path fill="#C95065" d="M71.5,84.8h-3.4c-2.5,0-4.6,2.1-4.6,4.6v0c0,2.5,2.1,4.6,4.6,4.6h3.4c16.6,0,30-13.4,30-30l0,0 c0-1.6-0.1-3.1-0.4-4.6C98.9,73.8,86.5,84.8,71.5,84.8z"/></g><path fill="none" stroke="#3F4A54" stroke-linecap="round" stroke-linejoin="round" stroke-miterlimit="10" stroke-width="6" d="M35.8,34h35.7c16.6,0,30,13.4,30,30v0c0,16.6-13.4,30-30,30H35.8"/><path fill="none" stroke="#FFF" stroke-linecap="round" stroke-linejoin="round" stroke-miterlimit="10" stroke-width="6" d="M54.8,46h12.6"/><path fill="none" stroke="#FFF" stroke-linecap="round" stroke-linejoin="round" stroke-miterlimit="10" stroke-width="6" d="M80.5,46L80.5,46"/><path fill="none" stroke="#3F4A54" stroke-linecap="round" stroke-linejoin="round" stroke-miterlimit="10" stroke-width="6" d="M115.3,56.6l-4.1,4.1c-1.8,1.8-1.8,4.7,0,6.5l4.1,4.1"/><ellipse cx="35.8" cy="64" fill="none" stroke="#3F4A54" stroke-linecap="round" stroke-linejoin="round" stroke-miterlimit="10" stroke-width="6" rx="23.1" ry="30"/><circle cx="35.8" cy="73.2" r="2.8" fill="#FFF"/><circle cx="45" cy="64" r="2.8" fill="#FFF"/><circle cx="26.5" cy="54.8" r="2.8" fill="#FFF"/></g></svg>