<svg xmlns="http://www.w3.org/2000/svg" viewBox="0 0 100 100" width="50" height="50"><path fill="#ee3e54" d="M13 27A2 2 0 1 0 13 31A2 2 0 1 0 13 27Z"/><path fill="#f1bc19" d="M77 12A1 1 0 1 0 77 14A1 1 0 1 0 77 12Z"/><path fill="#fce0a2" d="M50 13A37 37 0 1 0 50 87A37 37 0 1 0 50 13Z"/><path fill="#f1bc19" d="M83 11A4 4 0 1 0 83 19A4 4 0 1 0 83 11Z"/><path fill="#ee3e54" d="M87 22A2 2 0 1 0 87 26A2 2 0 1 0 87 22Z"/><path fill="#fbcd59" d="M81 74A2 2 0 1 0 81 78 2 2 0 1 0 81 74zM15 59A4 4 0 1 0 15 67 4 4 0 1 0 15 59z"/><path fill="#ee3e54" d="M25 85A2 2 0 1 0 25 89A2 2 0 1 0 25 85Z"/><path fill="#fff" d="M18.5 51A2.5 2.5 0 1 0 18.5 56A2.5 2.5 0 1 0 18.5 51Z"/><path fill="#f1bc19" d="M21 66A1 1 0 1 0 21 68A1 1 0 1 0 21 66Z"/><path fill="#fff" d="M80 33A1 1 0 1 0 80 35A1 1 0 1 0 80 33Z"/><path fill="#00a5a5" d="M58.966,32.111c-3.797-5.423-11.271-6.74-16.693-2.943c-5.423,3.797-6.74,11.271-2.943,16.693 c3.797,5.422,11.271,6.74,16.693,2.943C61.445,45.008,62.763,37.534,58.966,32.111z M47.999,35.625c-0.629,0-5.37,0-6,0 c-0.897,0-1.625-0.728-1.625-1.625s0.728-1.625,1.625-1.625c0.63,0,5.371,0,6,0c0.897,0,1.625,0.728,1.625,1.625 S48.896,35.625,47.999,35.625z"/><path fill="#ce942b" d="M59.827,45.531c-0.066,0.046-7.896,5.529-8.182,5.729c-0.678,0.475-0.843,1.409-0.368,2.087 s1.409,0.843,2.087,0.368c0.145-0.101,1.514-1.06,2.046-1.432l3.032,4.331l0.119,0.169l-0.036,0.204l-0.209,1.187l1.595,0.281 l0.492,0.087l-0.087,0.492l-0.281,1.595l1.595,0.281l0.492,0.087l-0.087,0.492l-0.281,1.595l1.595,0.281l0.492,0.087l-0.087,0.492 l-0.281,1.595l5.024,1.96l0.003-0.003l0.006-0.013l-0.006-5.057c0-0.103-0.031-0.202-0.09-0.286l-8.907-12.72 c0,0,1.775-1.243,2.046-1.432c0.678-0.475,0.843-1.409,0.368-2.087C61.439,45.221,60.505,45.056,59.827,45.531z"/><path fill="#e2ad17" d="M59.827,45.531c-0.029,0.021-2.086,1.46-3.477,2.435L68.501,65.32l-0.004-2.895 c0-0.103-0.031-0.202-0.09-0.286l-8.907-12.72c0,0,1.775-1.243,2.046-1.432c0.678-0.475,0.843-1.409,0.368-2.087 C61.439,45.221,60.505,45.056,59.827,45.531z"/><path fill="#472b29" d="M59.541,45.122c-0.299,0.21-7.971,5.581-8.182,5.729c-0.904,0.633-1.123,1.878-0.491,2.782 c0.633,0.904,1.878,1.123,2.782,0.491c0.167-0.117,1.636-1.146,1.636-1.146l2.746,3.922l-0.209,1.187 c-0.048,0.272,0.133,0.531,0.405,0.578l1.595,0.281l-0.281,1.595c-0.048,0.272,0.133,0.531,0.405,0.578l1.595,0.281l-0.281,1.595 c-0.048,0.272,0.133,0.531,0.405,0.578l1.595,0.281l-0.281,1.595c-0.041,0.234,0.088,0.466,0.31,0.552l5.033,1.963 c0.162,0.063,0.336,0.036,0.468-0.056c0.009-0.006,0.012-0.019,0.02-0.026c0.057-0.047,0.103-0.104,0.135-0.172 c0.006-0.012,0.018-0.017,0.023-0.029c0.028-0.073,0.034-0.148,0.029-0.221l-0.001-5.037c0-0.205-0.063-0.405-0.181-0.573 l-8.62-12.311c0.229-0.16,1.343-0.941,1.636-1.146c0.904-0.633,1.123-1.878,0.491-2.782C61.69,44.708,60.445,44.489,59.541,45.122z M61.26,47.576l-1.636,1.146c-0.452,0.316-0.562,0.939-0.245,1.391l8.62,12.311l0.001,4.343l-3.965-1.547l0.297-1.683 c0.048-0.272-0.133-0.531-0.405-0.578l-1.595-0.281l0.281-1.595c0.048-0.272-0.133-0.531-0.405-0.578l-1.595-0.281l0.281-1.595 c0.048-0.272-0.133-0.531-0.405-0.578l-1.595-0.281l0.159-0.899c0.023-0.13-0.007-0.265-0.083-0.373l-2.864-4.091 c-0.316-0.452-0.939-0.562-1.391-0.245l-1.636,1.146c-0.451,0.316-1.075,0.206-1.391-0.245s-0.206-1.075,0.245-1.391 c0.082-0.058,8.012-5.61,8.182-5.729c0.451-0.316,1.075-0.206,1.391,0.245S61.711,47.26,61.26,47.576z"/><path fill="#472b29" d="M61.649 55.784c-.079 0-.156-.037-.205-.106l-4.297-6.137c-.08-.113-.052-.269.061-.348.113-.08.269-.052.348.061l4.297 6.137c.08.113.052.269-.061.348C61.749 55.77 61.699 55.784 61.649 55.784zM63.941 59.057c-.079 0-.156-.037-.205-.106l-.859-1.227c-.08-.113-.052-.269.061-.348.113-.08.269-.052.348.061l.859 1.227c.08.113.052.269-.061.348C64.041 59.042 63.991 59.057 63.941 59.057zM66.233 62.33c-.079 0-.156-.037-.205-.106l-.859-1.227c-.08-.113-.052-.269.061-.348.113-.079.269-.053.348.061l.859 1.227c.08.113.052.269-.061.348C66.333 62.315 66.283 62.33 66.233 62.33zM51.931 51.67l8.184-5.73c2.72-4.294 2.767-9.977-.33-14.401-4.113-5.874-12.21-7.302-18.084-3.189s-7.302 12.21-3.189 18.084C41.609 50.858 46.965 52.757 51.931 51.67zM42.502 29.495c5.233-3.664 12.472-2.388 16.137 2.845 3.664 5.233 2.388 12.472-2.845 16.137s-12.472 2.388-16.137-2.845C35.992 40.398 37.269 33.159 42.502 29.495z"/><path fill="#472b29" d="M52.249 50.625H52.499V54H52.249zM52.874 50.125H53.124V53.875H52.874zM53.499 49.75H53.749V53.125H53.499zM54.249 52.125c-.069 0-.125-.056-.125-.125v-2.75c0-.069.056-.125.125-.125s.125.056.125.125V52C54.374 52.069 54.317 52.125 54.249 52.125zM54.874 51.125c-.069 0-.125-.056-.125-.125l.001-2.125c0-.069.056-.125.125-.125S55 48.806 55 48.875L54.999 51C54.999 51.069 54.942 51.125 54.874 51.125z"/><path fill="#ee3e54" d="M45,28c-6.627,0-12,5.373-12,12c0,6.627,5.373,12,12,12s12-5.373,12-12C57,33.373,51.627,28,45,28z M48,35.625c-0.629,0-5.37,0-6,0c-0.897,0-1.625-0.728-1.625-1.625s0.728-1.625,1.625-1.625c0.63,0,5.371,0,6,0 c0.897,0,1.625,0.728,1.625,1.625S48.897,35.625,48,35.625z"/><path fill="#db2e4c" d="M47.75,47.75h-5.5c-2.209,0-4-1.791-4-4v-1.5c0-2.209,1.791-4,4-4h5.5c2.209,0,4,1.791,4,4v1.5 C51.75,45.959,49.959,47.75,47.75,47.75z"/><path fill="#f1bc19" d="M50,51.5c-0.081,0-9.65,0-10,0c-0.828,0-1.5,0.672-1.5,1.5s0.672,1.5,1.5,1.5c0.177,0,1.85,0,2.5,0 v5.293V60l-0.146,0.146L41.5,61l1.146,1.146L43,62.5l-0.354,0.354L41.5,64l1.146,1.146L43,65.5l-0.354,0.354L41.5,67l1.146,1.146 L43,68.5l-0.354,0.354L41.5,70l2.995,4.492l0.004,0l0.012-0.007l2.899-4.151c0.059-0.084,0.09-0.184,0.09-0.287V54.5 c0,0,2.169,0,2.5,0c0.828,0,1.5-0.672,1.5-1.5S50.828,51.5,50,51.5z"/><path fill="#fbcd59" d="M50,51.5c-0.036,0-2.549,0-4.25,0v21.21l1.66-2.377c0.059-0.084,0.09-0.184,0.09-0.287V54.5 c0,0,2.169,0,2.5,0c0.828,0,1.5-0.672,1.5-1.5S50.828,51.5,50,51.5z"/><path fill="#472b29" d="M50,51c-0.366,0-9.742,0-10,0c-1.105,0-2,0.895-2,2c0,1.105,0.895,2,2,2c0.204,0,2,0,2,0v4.793 l-0.854,0.854c-0.195,0.195-0.195,0.512,0,0.707l1.146,1.146l-1.146,1.146c-0.195,0.195-0.195,0.512,0,0.707l1.146,1.146 l-1.146,1.146c-0.195,0.195-0.195,0.512,0,0.707l1.146,1.146l-1.146,1.146c-0.168,0.168-0.195,0.433-0.063,0.631l3,4.5 C44.18,74.922,44.339,75,44.5,75c0.011,0,0.021-0.009,0.031-0.01c0.073-0.006,0.144-0.026,0.21-0.064 c0.011-0.006,0.025-0.003,0.036-0.011c0.065-0.044,0.113-0.101,0.15-0.165l2.892-4.131C47.937,70.452,48,70.252,48,70.047V55 c0.28,0,1.642,0,2,0c1.105,0,2-0.895,2-2C52,51.895,51.105,51,50,51z M50,54h-2c-0.552,0-1,0.448-1,1v15.047l-2.493,3.562 l-2.363-3.545l1.21-1.21c0.195-0.195,0.195-0.512,0-0.707L42.207,67l1.146-1.146c0.195-0.195,0.195-0.512,0-0.707L42.207,64 l1.146-1.146c0.195-0.195,0.195-0.512,0-0.707L42.207,61l0.646-0.646C42.947,60.26,43,60.133,43,60v-5c0-0.552-0.448-1-1-1h-2 c-0.551,0-1-0.449-1-1s0.449-1,1-1c0.101,0,9.792,0,10,0c0.551,0,1,0.449,1,1S50.551,54,50,54z"/><path fill="#472b29" d="M45.75 61c-.138 0-.25-.112-.25-.25v-7.5c0-.138.112-.25.25-.25S46 53.112 46 53.25v7.5C46 60.888 45.888 61 45.75 61zM45.75 65c-.138 0-.25-.112-.25-.25v-1.5c0-.138.112-.25.25-.25S46 63.112 46 63.25v1.5C46 64.888 45.888 65 45.75 65zM45.75 69c-.138 0-.25-.112-.25-.25v-1.5c0-.138.112-.25.25-.25S46 67.112 46 67.25v1.5C46 68.888 45.888 69 45.75 69zM39.999 52h10.002C54.698 50.04 58 45.407 58 40c0-7.18-5.82-13-13-13s-13 5.82-13 13C32 45.407 35.302 50.04 39.999 52zM45 28.4c6.396 0 11.6 5.204 11.6 11.6 0 6.396-5.204 11.6-11.6 11.6S33.4 46.396 33.4 40C33.4 33.604 38.604 28.4 45 28.4z"/><path fill="#472b29" d="M48 36h-6c-1.103 0-2-.897-2-2s.897-2 2-2h6c1.103 0 2 .897 2 2S49.103 36 48 36zM42 32.75c-.689 0-1.25.561-1.25 1.25s.561 1.25 1.25 1.25h6c.689 0 1.25-.561 1.25-1.25s-.561-1.25-1.25-1.25H42zM51.195 46c-.043 0-.086-.011-.126-.034-.119-.069-.16-.222-.09-.342C51.325 45.031 51.5 44.4 51.5 43.75v-1.5c0-.138.112-.25.25-.25S52 42.112 52 42.25v1.5c0 .74-.198 1.455-.589 2.126C51.365 45.956 51.281 46 51.195 46zM47.75 48h-5.5C39.907 48 38 46.093 38 43.75v-1.5c0-2.343 1.907-4.25 4.25-4.25h5.5c1.736 0 3.281 1.042 3.935 2.656.052.128-.01.273-.138.326-.128.05-.274-.01-.326-.138C50.645 39.42 49.282 38.5 47.75 38.5h-5.5c-2.068 0-3.75 1.682-3.75 3.75v1.5c0 2.068 1.682 3.75 3.75 3.75h5.5c.138 0 .25.112.25.25S47.888 48 47.75 48z"/><path fill="#472b29" d="M45.499,34c1.244,0,2.371-0.562,3.185-1.469c-0.209-0.098-0.439-0.156-0.685-0.156 c-0.083,0-0.165,0-0.246,0c-0.629,0.541-1.404,0.875-2.254,0.875c-2.068,0-3.75-1.907-3.75-4.25s1.682-4.25,3.75-4.25 c1.05,0,1.998,0.495,2.68,1.286c0.299-0.023,0.599-0.034,0.901-0.035C48.258,24.793,46.967,24,45.499,24c-2.485,0-4.5,2.239-4.5,5 S43.013,34,45.499,34z"/></svg>