<?xml version="1.0" encoding="utf-8"?>
<!-- Generator: Adobe Illustrator 21.0.0, SVG Export Plug-In . SVG Version: 6.00 Build 0)  -->
<svg version="1.1" xmlns="http://www.w3.org/2000/svg" xmlns:xlink="http://www.w3.org/1999/xlink" x="0px" y="0px" viewBox="0 0 100 100" style="enable-background:new 0 0 100 100;" xml:space="preserve">

<g id="bank">
</g>
<g id="pig">
</g>
<g id="card_eject">
</g>
<g id="cash_money">
</g>
<g id="card_secured">
</g>
<g id="cheque">
</g>
<g id="alarm_coins">
</g>
<g id="box_edit">
</g>
<g id="box_lock">
</g>
<g id="box_favorite">
	<g>
		<g>
			<g>
				<g>
					<g>
						<path d="M76.462,28.27v2.299v37.613c0,3.915-3.203,7.117-7.117,7.117H29.71c-3.915,0-7.117-3.203-7.117-7.117
							V30.497V28.27" style="fill:#FCBA7F;"/>
					</g>
					<path d="M69.142,41.951h-39.23c-5.437,0-9.885-4.448-9.885-9.885v-7.372c0-0.855,0.699-1.554,1.554-1.554h55.922
						c0.838,0,1.523,0.686,1.523,1.523v7.403C79.027,37.503,74.579,41.951,69.142,41.951z" style="fill:#FED5B3;"/>
					<path d="M56.831,53.495h-14.88c-1.316,0-2.393-1.077-2.393-2.393v-0.343c0-1.316,1.077-2.393,2.393-2.393h14.88
						c1.316,0,2.393,1.077,2.393,2.393v0.343C59.224,52.418,58.147,53.495,56.831,53.495z" style="fill:#FFFFFF;"/>
					<polygon points="29.357,42.274 29.357,49.542 31.922,47.404 34.488,49.542 34.488,42.274 					" style="fill:#F15B6C;"/>
				</g>
			</g>
			<circle cx="73.897" cy="66.39" r="12.468" style="fill:#FEFDEF;"/>
			<path d="M73.897,64.108c-2.506-3.579-6.01-1.951-6.01,1.477c0,3.143,4.19,5.819,6.01,6.833
				c1.82-1.014,6.01-3.691,6.01-6.833C79.907,62.157,76.403,60.528,73.897,64.108z" style="fill:#F15B6C;"/>
		</g>
		<g>
			<path d="M65,26.429c0-0.276-0.224-0.5-0.5-0.5h-41c-0.276,0-0.5,0.224-0.5,0.5s0.224,0.5,0.5,0.5h41
				C64.776,26.929,65,26.706,65,26.429z" style="fill:#1F212B;"/>
			<path d="M67.5,26.929h3c0.276,0,0.5-0.224,0.5-0.5s-0.224-0.5-0.5-0.5h-3c-0.276,0-0.5,0.224-0.5,0.5
				S67.224,26.929,67.5,26.929z" style="fill:#1F212B;"/>
			<path d="M72.5,26.929h3c0.276,0,0.5-0.224,0.5-0.5s-0.224-0.5-0.5-0.5h-3c-0.276,0-0.5,0.224-0.5,0.5
				S72.224,26.929,72.5,26.929z" style="fill:#1F212B;"/>
			<path d="M78,53.717V39.311c1.255-1.774,2-3.933,2-6.266v-7.592c0-1.392-1.132-2.523-2.523-2.523H21.554
				c-1.408,0-2.554,1.146-2.554,2.555v7.561c0,2.899,1.146,5.53,3,7.482v28.286c0,4.476,3.642,8.117,8.118,8.117h34.916
				c2.318,1.873,5.262,3,8.467,3c7.444,0,13.5-6.056,13.5-13.5C87,60.565,83.235,55.576,78,53.717z M21,25.484
				c0-0.301,0.254-0.555,0.554-0.555h55.922c0.284,0,0.523,0.239,0.523,0.523v5.279c-0.007,1.38-0.044,2.724-0.173,4.05
				c-0.81,4.07-4.407,7.147-8.712,7.147H34.5h-4.615c-4.899,0-8.885-3.985-8.885-8.885V25.484z M30,43.929h4v4.684l-1.675-1.433
				c-0.093-0.08-0.209-0.12-0.325-0.12s-0.231,0.04-0.325,0.12L30,48.613V43.929z M24,68.812V42.187
				c1.465,0.946,3.168,1.549,5,1.697v5.813c0,0.195,0.114,0.372,0.291,0.454c0.178,0.083,0.386,0.053,0.534-0.074L32,48.218
				l2.175,1.859c0.092,0.079,0.208,0.12,0.325,0.12c0.071,0,0.142-0.015,0.209-0.046C34.886,50.07,35,49.893,35,49.698v-5.769h14v4
				h-7.106c-1.596,0-2.894,1.298-2.894,2.894v0.213c0,1.596,1.296,2.852,2.891,2.852l7.609,0.042l7.604-0.042
				c1.596,0,2.896-1.256,2.896-2.852v-0.213c0-1.596-1.298-2.894-2.894-2.894H50v-4h19.115c2.633,0,5.05-0.94,6.934-2.502
				c-0.001,0.003-0.002,0.006-0.004,0.009c-0.013,0.028-0.031,0.047-0.045,0.073v11.661c-0.811-0.153-1.645-0.241-2.5-0.241
				c-7.444,0-13.5,6.056-13.5,13.5c0,3.22,1.137,6.177,3.025,8.5H50v-20.5c0-0.276-0.224-0.5-0.5-0.5s-0.5,0.224-0.5,0.5v20.5
				H30.118C26.744,74.929,24,72.185,24,68.812z M57.106,48.929c1.044,0,1.894,0.85,1.894,1.894v0.213
				c0,1.044-0.85,1.894-1.894,1.894H41.894c-1.044,0-1.894-0.85-1.894-1.894v-0.213c0-1.044,0.85-1.894,1.894-1.894H57.106z
				 M73.5,77.929c-6.341,0-11.5-5.159-11.5-11.5s5.159-11.5,11.5-11.5S85,60.088,85,66.429S79.841,77.929,73.5,77.929z" style="fill:#1F212B;"/>
			<path d="M78.018,62.198c-1.387-0.44-2.873,0.142-4.071,1.554c-1.198-1.412-2.685-1.994-4.071-1.554
				c-1.482,0.467-2.439,1.979-2.439,3.851c0,3.411,4.383,6.221,6.267,7.27c0.076,0.042,0.159,0.063,0.243,0.063
				s0.167-0.021,0.243-0.063c1.884-1.049,6.267-3.857,6.267-7.27C80.457,64.176,79.5,62.664,78.018,62.198z M73.947,72.307
				c-1.568-0.904-5.51-3.457-5.51-6.259c0-1.427,0.683-2.564,1.74-2.897c0.201-0.063,0.406-0.094,0.614-0.094
				c0.942,0,1.933,0.638,2.747,1.801c0.188,0.268,0.632,0.268,0.819,0c0.993-1.419,2.247-2.06,3.36-1.707
				c1.057,0.333,1.74,1.471,1.74,2.897C79.457,68.851,75.515,71.403,73.947,72.307z" style="fill:#1F212B;"/>
		</g>
	</g>
</g>
<g id="box_diamont">
</g>
<g id="box_secured">
</g>
<g id="chat_edit">
</g>
<g id="chat_delete">
</g>
<g id="chat_add">
</g>
<g id="chat_love">
</g>
<g id="chat_search">
</g>
<g id="finance_mail">
</g>
<g id="finance_order">
</g>
<g id="finance_dollars">
</g>
<g id="folder_medal">
</g>
<g id="folder_edit">
</g>
<g id="folder_bills">
</g>
<g id="folder_pictures">
</g>
<g id="folder_logs">
</g>
<g id="folder_diamond">
</g>
<g id="folder_mail">
</g>
<g id="folder_favorite">
</g>
<g id="folder_globe">
</g>
<g id="folder_music">
</g>
<g id="open_envelope_remove">
</g>
<g id="open_envelope_add">
</g>
<g id="open_envelope_clock">
</g>
<g id="open_envelope_delete">
</g>
<g id="envelope_lock">
</g>
<g id="envelope_love">
</g>
<g id="envelope_number">
</g>
<g id="envelope_important">
</g>
<g id="envelope_dots">
</g>
<g id="envelope__x40_">
</g>
<g id="mail_envelope">
</g>
<g id="envelope_open">
</g>
<g id="cd">
</g>
<g id="database_delete">
</g>
<g id="database_remove">
</g>
<g id="database_clock">
</g>
<g id="database_add">
</g>
<g id="database_check">
</g>
<g id="databes_dots">
</g>
<g id="database_search">
</g>
<g id="window_plug">
</g>
<g id="window_secured">
</g>
<g id="window_cloud">
</g>
<g id="window_star">
</g>
<g id="window_top">
</g>
<g id="window_arrows">
</g>
<g id="window_settings">
</g>
<g id="window_search">
</g>
<g id="zoom_out">
</g>
<g id="zoom_in">
</g>
<g id="filter">
</g>
<g id="bell">
</g>
<g id="battery_plugged">
</g>
<g id="battery_1">
</g>
<g id="battery_2">
</g>
<g id="battery_3_1_">
</g>
<g id="battery_4_1_">
</g>
<g id="battery_charge">
</g>
<g id="game">
</g>
<g id="polaroid">
</g>
<g id="remote_control">
</g>
<g id="tv">
</g>
<g id="SIM_card">
</g>
<g id="video_camera">
</g>
<g id="ticket">
</g>
<g id="cinema_tape">
</g>
<g id="movie_clip">
</g>
<g id="radio">
</g>
<g id="projector">
</g>
<g id="tablet">
</g>
<g id="network_plug">
</g>
<g id="cooler">
</g>
<g id="card_sd">
</g>
<g id="aircard">
</g>
<g id="USB">
</g>
<g id="hard_drive">
</g>
<g id="RAM">
</g>
<g id="chip">
</g>
<g id="database">
</g>
<g id="keyboard">
</g>
<g id="domain">
</g>
<g id="imac_connected">
</g>
<g id="cloud_connection">
</g>
<g id="connection_lock">
</g>
<g id="network_security">
</g>
<g id="shared_files">
</g>
<g id="internet">
</g>
<g id="globe_network">
</g>
<g id="pc">
</g>
<g id="website">
</g>
</svg>
