<?xml version="1.0" encoding="utf-8"?>
<!-- Generator: Adobe Illustrator 23.0.1, SVG Export Plug-In . SVG Version: 6.00 Build 0)  -->
<svg xmlns="http://www.w3.org/2000/svg" xmlns:xlink="http://www.w3.org/1999/xlink" version="1.1" id="Layer_1" x="0px" y="0px" viewBox="0 0 100 100" style="enable-background:new 0 0 100 100;" xml:space="preserve">
<title>Elvis Presley</title>
<g id="Layer_14">
	<g id="background_round-17">
		<g id="_grupa_">
			<circle style="fill:#FFFFFF;" cx="20.2" cy="57" r="0.9"/>
			<circle style="fill:#FFFFFF;" cx="79.3" cy="32.1" r="0.7"/>
			<circle style="fill:#F1BC19;" cx="76.6" cy="13.1" r="0.9"/>
			<circle style="fill:#F1BC19;" cx="20.7" cy="64.6" r="0.9"/>
			<circle style="fill:#F9DBD2;" cx="49.5" cy="50.3" r="37.5"/>
			<circle style="fill:#F1BC19;" cx="82.1" cy="15.2" r="4"/>
			<circle style="fill:#EE3E54;" cx="86.1" cy="24.3" r="1.9"/>
			<circle style="fill:#FBCD59;" cx="77.1" cy="76.7" r="1.9"/>
			<circle style="fill:#FBCD59;" cx="13.9" cy="63.8" r="4"/>
			<circle style="fill:#EE3E54;" cx="24.2" cy="87.9" r="1.9"/>
			<circle style="fill:#FFFFFF;" cx="75.8" cy="30.6" r="1.8"/>
			<circle style="fill:#FFFFFF;" cx="17.7" cy="51.7" r="2.5"/>
			<path style="fill:#E5AC80;" d="M68,71.5c-0.4-2.2-1.3-3.4-3.3-4l-0.3-0.1l-0.6-0.2c-1.3-0.5-8.7-3.3-8.7-3.3     c-0.6-0.1-1-0.5-1.2-1.1c-0.2-0.9-0.3-1.9-0.2-2.9c-1.6,0.6-3.3,1-5,1.4c-1.9,0.2-6-2.3-6-2.3s-0.1,3-0.2,3.7     c-0.2,0.6-0.7,1-1.3,1.1l-7.1,2.6c-0.8,0.2-1.5,0.5-2.2,0.9c-1.5,1-2.6,2.4-3.2,4.2c0,0-0.5,3.3-0.5,3.4c0,0.5,0.1,5.6,0.1,6.2     c7.8,5.3,14,6.7,24.7,6.3c4.9-0.2,12.1-2.6,15.9-4.5C68.6,78.6,68,71.5,68,71.5z"/>
			<path style="fill:#FDFCEF;" d="M68,71.5c-0.4-2.2-1.3-3.4-3.3-4c-0.1,0-0.2-0.1-0.3-0.1l-0.6-0.2c-0.7-0.3-7.3-2.6-9.5-3.4     l-0.1,0.1l0.1-0.1c-0.1,0.1,0,0.3,0,0.5c-0.7,4.4-4.8,11.3-6.4,14l0,0c0-0.1-0.1-0.2-0.1-0.3c-0.5-1.3-4.1-6.5-4.5-7.6     c-0.6-2.1-0.9-4.3-0.9-6.5L42,63.6l-3.2,1.2l0,0l-0.3,0.1L34,66.5c-0.8,0.2-1.5,0.5-2.2,0.9c-1.5,1-2.6,2.4-3.2,4.2     c0,0-0.5,3.3-0.5,3.4c0,0.5-0.1,5.4-0.1,6c7.8,5.3,14,6.7,24.7,6.3c4.9-0.2,12.1-2.6,15.9-4.5C68.4,78.5,68,71.5,68,71.5z"/>
			<path style="fill:#E1E0D8;" d="M34.8,85.2c-0.2,0-0.3-0.1-0.3-0.3v-4c0-0.2,0.1-0.3,0.3-0.3s0.3,0.1,0.3,0.3v4     C35.1,85.1,35,85.2,34.8,85.2z"/>
			<path style="fill:#E1E0D8;" d="M61.1,85.9c-0.2,0-0.3-0.1-0.3-0.3V81c0-0.2,0.1-0.3,0.3-0.3s0.3,0.1,0.3,0.3v4.6     C61.4,85.8,61.3,85.9,61.1,85.9z"/>
			<path style="fill:#EDBC94;" d="M60.5,45.2h-0.4c-1,0-1.2,0.3-1.2-0.3c0.1-1-0.1-5.3-0.1-5.5c0-4.4-4.7-8-10.5-8.2l0,0h-0.2l0,0     c-5.8,0.2-10.5,3.8-10.5,8.2c0,0.2-0.1,4.5-0.1,5.5c0,0.6-0.2,0.2-1.2,0.3h-0.4c-1,0-1.8,0.6-2.1,1.6c0.1,0.1,0.6,3.7,1.4,5.1     c0.4,0.8,1.1,0.9,1.8,1.4c0.3,0.2,0.5,0.6,0.6,1c0.5,1.6,1.4,2.9,2.7,4c0.6,0.6,4.5,4.7,7.9,4.5s7.3-3.9,7.9-4.5     c1.2-1.1,2.2-2.4,2.7-4c0.1-0.4,0.3-0.8,0.6-1c0.7-0.5,1.4-0.6,1.8-1.4c0.8-1.4,1.3-5,1.4-5.1C62.3,45.8,61.5,45.2,60.5,45.2z"/>
			<path style="fill:#512C2B;" d="M48.2,53c0.7,0,1.3-0.3,1.8-0.8c0,0,0-0.1,0-0.2c0,0,0,0,0,0l0,0c0,0-0.1,0-0.2,0c0,0,0,0,0,0     c-0.9,0.8-2.3,0.8-3.2,0c0,0-0.1,0-0.1,0c0,0-0.1,0-0.1,0c0,0,0,0.1,0,0.2c0,0,0,0,0,0C46.9,52.7,47.5,53,48.2,53z"/>
			<path style="fill:#512C2B;" d="M46,42.8l0.4-0.8c-1.9-0.4-3.8-0.4-5.7,0.2l0.5,0.8C42.8,42.5,44.4,42.4,46,42.8z"/>
			<path style="fill:#512C2B;" d="M55.2,42.8l0.4-0.8c-1.9-0.4-3.8-0.4-5.7,0.2l0.5,0.8C52,42.5,53.6,42.4,55.2,42.8z"/>
			<path style="fill:#512C2B;" d="M43.3,44c-0.5,0-0.9,0.3-1,0.7h0.2c0.4,0,0.7,0.3,0.7,0.7c0,0.4-0.3,0.7-0.7,0.7     c-0.1,0-0.2,0-0.3-0.1c0.1,0.6,0.6,1.1,1.2,1.2c0.9-0.2,1.4-1.1,1.2-2C44.4,44.6,44,44.2,43.3,44L43.3,44z"/>
			<path style="fill:#512C2B;" d="M52.9,44c-0.4,0-0.7,0.2-0.9,0.5c0.1,0,0.2,0,0.2,0c0.4,0,0.7,0.3,0.7,0.7c0,0.4-0.3,0.7-0.7,0.7     c-0.2,0-0.4-0.1-0.5-0.3c0.2,0.7,0.9,1.1,1.6,0.9c0.7-0.2,1.1-0.9,0.9-1.6C54,44.4,53.5,44,52.9,44z"/>
			<path style="fill:#D3A47D;" d="M60.4,49.9l-0.6-0.1L60,48l-1,0.4l-0.2-0.6l1.5-0.6c0.1,0,0.2,0,0.3,0c0.1,0.1,0.1,0.2,0.1,0.3     L60.4,49.9z"/>
			<path style="fill:#D3A47D;" d="M36.2,49.5l-0.3-2.3c0-0.1,0-0.2,0.1-0.3c0.1-0.1,0.2-0.1,0.3,0l1.5,0.6l-0.2,0.6l-1-0.4l0.2,1.8     L36.2,49.5z"/>
			<path style="fill:#472B29;" d="M37.5,54C37.5,54,37.5,54,37.5,54c-0.1,0-0.2-0.1-0.2-0.2l0.2-8.6c0-0.1,0.1-0.2,0.2-0.2     c0,0,0,0,0,0c0.1,0,0.2,0.1,0.2,0.2l-0.2,8.6C37.7,53.9,37.6,54,37.5,54z"/>
			<path style="fill:#472B29;" d="M58.9,54c-0.1,0-0.2-0.1-0.2-0.2l-0.2-8.6c0-0.1,0.1-0.2,0.2-0.2c0,0,0,0,0,0     c0.1,0,0.2,0.1,0.2,0.2l0.2,8.6C59.1,53.9,59,54,58.9,54C58.9,54,58.9,54,58.9,54z"/>
			<path style="fill:#6D1B18;" d="M44.7,55.4c0,0.2-0.1,0.3-0.1,0.5c0,1.4,1.5,2.5,3.4,2.5s3.4-1.1,3.4-2.5c0-0.2,0-0.3-0.1-0.5     H44.7z"/>
			<path style="fill:#EE3E54;" d="M49.9,58c-0.5-0.4-1.2-0.6-1.8-0.6c-0.7,0-1.3,0.2-1.8,0.6c0.6,0.3,1.2,0.4,1.8,0.4     C48.7,58.4,49.3,58.3,49.9,58z"/>
			<path style="fill:#FDFCEF;" d="M45.7,55.4L45.7,55.4v0.4c0,0.4,0.5,0.7,1.1,0.7h2.6c0.6,0,1.1-0.3,1.1-0.7v-0.4l0,0H45.7z"/>
			<path style="fill:#472B29;" d="M48.1,58.6c-2,0-3.6-1.2-3.6-2.7c0-0.2,0-0.4,0.1-0.5c0-0.1,0.1-0.1,0.2-0.1h6.7     c0.1,0,0.2,0.1,0.2,0.1c0,0.2,0.1,0.3,0.1,0.5C51.7,57.3,50.1,58.6,48.1,58.6z M44.9,55.6c0,0.1,0,0.2,0,0.3     c0,1.3,1.5,2.3,3.2,2.3s3.2-1,3.2-2.3c0-0.1,0-0.2,0-0.3H44.9z"/>
			<path style="fill:#DD314E;" d="M53.5,62c0,0-6.6,7.3-6.9,13.2c-0.1,1.4,1.7,3.4,1.7,3.4"/>
			<path style="fill:#EE3E54;" d="M42.6,62c0,0,6.6,7.3,6.9,13.2c0.1,1.4-1.7,3.4-1.7,3.4l-6.4-15.1L42.6,62z"/>
			<path style="fill:#E1E0D8;" d="M59.1,61.4c-0.1-0.2-0.3-0.3-0.5-0.3c-3.8,0.7-5.3,1-5.3,1c-0.2,0-0.4,0.2-0.4,0.4     C51.6,67.6,50,72.7,48,77.6c-2-4.9-3.7-9.9-4.9-15.1c0-0.2-0.2-0.4-0.4-0.4c0,0-1.6-0.3-5.3-1c-0.2,0-0.4,0.1-0.5,0.3     c-0.1,0.2-0.1,0.4,0.1,0.6l4.3,5L40,66.7c-0.2-0.1-0.4,0-0.5,0.2c-0.1,0.2-0.1,0.4,0,0.6l8,11.4c0.1,0.1,0.2,0.2,0.4,0.2     c0,0,0.1,0,0.1-0.1c0,0,0.1,0,0.1,0c0.2,0,0.3-0.1,0.4-0.2l8-11.4c0.1-0.2,0.1-0.4,0-0.6c-0.1-0.2-0.3-0.3-0.5-0.2L54.7,67l4.3-5     C59.2,61.8,59.3,61.6,59.1,61.4z"/>
			<path style="fill:#472B29;" d="M49.4,87.9c-8.9,0-14.6-1.8-21.5-6.4c-0.1-0.1-0.2-0.2-0.2-0.4c0-0.1,0-0.5,0-1.1     c0-2.2,0.1-6.7,0.6-8.4c0.4-1.9,1.6-3.5,3.4-4.4c0.7-0.4,1.5-0.7,2.3-0.9l4.7-1.7l-2-2.3c-0.2-0.3-0.3-0.7-0.1-1     c0.2-0.3,0.6-0.5,0.9-0.5c2.2,0.4,3.7,0.7,4.5,0.8l0.2,0c0-0.3,0-0.6,0-0.8c-0.7-0.5-1.5-1.1-2.1-1.6c-1.3-1.2-2.3-2.7-2.8-4.3     c-0.1-0.4-0.2-0.6-0.4-0.8c-0.2-0.2-0.4-0.3-0.6-0.4c-0.5-0.3-0.9-0.5-1.3-1.2c-0.8-1.7-1.3-3.5-1.4-5.4c0-0.1,0-0.1,0-0.1     c0.3-1.1,1.3-1.9,2.5-1.9h0.4c0.3,0,0.6,0,0.8,0.1c-0.1-1,0-3.8,0.1-5c0-0.3,0-0.5,0-0.5c0-4.7,4.8-8.6,10.9-8.8h0.2     c6.1,0.2,10.9,4.1,10.9,8.8c0,0,0,0.2,0,0.5c0,1.2,0.1,4.1,0.1,5c0.2,0,0.5-0.1,0.8-0.1h0.4c1.2,0,2.2,0.8,2.5,1.9     c0,0,0,0.1,0,0.1c-0.2,1.9-0.6,3.7-1.4,5.4c-0.4,0.7-0.8,0.9-1.3,1.2c-0.2,0.1-0.4,0.2-0.6,0.4c-0.2,0.2-0.4,0.4-0.4,0.7     c-0.5,1.7-1.5,3.2-2.8,4.4c-0.7,0.6-1.5,1.2-2.3,1.8c0,0.2,0,0.4,0,0.7l0.4-0.1c0.9-0.2,2.2-0.4,4.2-0.7c0.4-0.1,0.7,0.1,0.9,0.4     c0.2,0.3,0.2,0.7,0,1l-2,2.3c2.3,0.8,5.7,2.1,6.5,2.5l0.9,0.4c2.1,0.6,3.1,1.9,3.6,4.3c0,0,0,0,0,0.1c0,0,0.4,6.9,0.5,11.2     c0,0.2-0.1,0.3-0.2,0.4c-4,2-11.3,4.4-16.1,4.6C51.6,87.8,50.5,87.9,49.4,87.9z M28.5,80.9c7.5,5,13.6,6.5,24.3,6.1     c4.5-0.2,11.5-2.4,15.5-4.4c-0.2-4.1-0.5-10.4-0.5-10.9c-0.4-2.1-1.3-3.1-3.1-3.7l-1-0.4c-0.9-0.4-4.8-1.8-7-2.6     c-0.1,0-0.2-0.1-0.2-0.3c0-0.1,0-0.3,0.1-0.4l2.3-2.7c0,0,0,0,0-0.1c0-0.1-0.1-0.1-0.1-0.1c-2,0.3-3.3,0.6-4.2,0.7l-0.8,0.1     c-0.1,0-0.2,0-0.3-0.1s-0.1-0.2-0.2-0.3c0-0.5,0-0.9,0-1.4c0-0.1,0.1-0.2,0.2-0.3c0.8-0.6,1.6-1.2,2.4-1.8c1.2-1.1,2.1-2.4,2.6-4     c0.1-0.4,0.3-0.9,0.7-1.2c0.3-0.2,0.5-0.3,0.7-0.5c0.4-0.2,0.7-0.4,1-0.9c0.7-1.6,1.2-3.3,1.3-5c-0.3-0.7-0.9-1.2-1.7-1.2h-0.3     c-0.3,0-0.5,0-0.7,0.1c-0.3,0-0.5,0.1-0.7-0.1c-0.2-0.2-0.2-0.5-0.2-0.6c0.1-0.8,0-3.9-0.1-5.1c0-0.3,0-0.5,0-0.5     c0-4.3-4.4-7.8-10.1-8h-0.2c-5.6,0.2-10.1,3.7-10.1,8c0,0,0,0.2,0,0.5c0,1.2-0.1,4.2-0.1,5.1c0,0.1,0,0.4-0.2,0.6     c-0.2,0.2-0.4,0.1-0.7,0.1c-0.2,0-0.4-0.1-0.7-0.1l-0.4,0c-0.8,0-1.4,0.5-1.7,1.2c0.2,1.7,0.6,3.4,1.3,5c0.2,0.4,0.6,0.6,1,0.8     c0.2,0.1,0.5,0.3,0.7,0.5c0.4,0.3,0.6,0.8,0.7,1.3c0.5,1.5,1.3,2.8,2.5,3.9c0.7,0.6,1.5,1.2,2.2,1.7c0.1,0.1,0.2,0.2,0.2,0.3     c0,0.5,0,1.1-0.1,1.6c0,0.1-0.1,0.2-0.2,0.3c-0.1,0.1-0.2,0.1-0.3,0.1l-0.6-0.1c-0.8-0.2-2.3-0.4-4.5-0.8c0,0-0.1,0-0.1,0.1     c0,0,0,0.1,0,0.1l2.4,2.8c0.1,0.1,0.1,0.2,0.1,0.4c0,0.1-0.1,0.2-0.3,0.3L34.2,67c-0.8,0.2-1.5,0.5-2.1,0.9     c-1.6,0.8-2.6,2.2-3,3.9c-0.5,1.7-0.5,6.3-0.6,8.2C28.5,80.4,28.5,80.7,28.5,80.9z"/>
			<circle style="fill:#EE3E54;" cx="40" cy="63" r="0.5"/>
			<circle style="fill:#EE3E54;" cx="41.3" cy="65" r="0.5"/>
			<circle style="fill:#EE3E54;" cx="41.6" cy="68.3" r="0.5"/>
			<circle style="fill:#EE3E54;" cx="42.8" cy="70.3" r="0.5"/>
			<circle style="fill:#EE3E54;" cx="44.1" cy="72.1" r="0.5"/>
			<circle style="fill:#EE3E54;" cx="56.1" cy="63" r="0.5"/>
			<circle style="fill:#EE3E54;" cx="54.8" cy="65" r="0.5"/>
			<circle style="fill:#EE3E54;" cx="54.6" cy="68.3" r="0.5"/>
			<circle style="fill:#EE3E54;" cx="53.3" cy="70.3" r="0.5"/>
			<circle style="fill:#EE3E54;" cx="52" cy="72.1" r="0.5"/>
			<path style="fill:#512C2B;" d="M38.3,43.1c0,3.6-0.3,4.5,0,5.8s0.9,4,1.4,4.5s-1.7-0.1-2-1.1s-0.2-4.3-0.8-5.7s-3.7-6.1-2.9-9.9     c0.5-2.6,0.5-0.5,1,0.4c-0.5-1.9-0.2-3.8,0.6-5.5c1.4-2.9,5.2-5.5,8-5.7s8.5,0,9.3-2.2c0.3-0.6,0.5-1.2,0.5-1.8     c0.3,0.7,0.5,1.4,0.5,2.1c-0.2,0.9,1.4-0.9,1.2-1.8s0.6,1.2,0.3,2s1.4-1,1.1-1.8s2.9,2.3,2.7,4.6s-0.4,3.4-0.8,3.9s1,0.1,1.1-0.6     s1.8,2.8,2.3,4.8c0.6,2,0.4,4.1-0.6,5.9c-1,1.8-1.6,2.2-1.9,4.5c-0.3,2-0.4,4-0.5,6c0.1,0.9-1.7,1.8-1.7,1.8     c0.5-1.5,0.8-3.1,0.7-4.6c-0.1-2.6,0.8-6.4-1.1-8.9s-5.7-0.6-6.6-0.5s-3,0.2-3.8-0.3S38.2,38.3,38.3,43.1z"/>
			<path style="fill:#472B29;" d="M48.1,63.2c-2.2,0-5.8-2.7-5.9-2.8c-0.1-0.1-0.1-0.2,0-0.4c0.1-0.1,0.2-0.1,0.4,0     c0,0,3.9,2.9,5.8,2.7c2-0.2,5.2-2.4,5.3-2.4c0.1-0.1,0.3,0,0.3,0.1c0.1,0.1,0,0.3-0.1,0.3c-0.1,0.1-3.4,2.3-5.5,2.5     C48.3,63.2,48.2,63.2,48.1,63.2z"/>
		</g>
	</g>
</g>
</svg>
