<svg xmlns="http://www.w3.org/2000/svg" data-name="Layer 1" viewBox="0 0 64 64" width="64" height="64"><path fill="#f9dd8f" d="M58.21,5.16h0a4.91,4.91,0,0,1,4.91,4.91v4.46a0,0,0,0,1,0,0H53.3a0,0,0,0,1,0,0V10.07a4.91,4.91,0,0,1,4.91-4.91Z" transform="rotate(45 58.213 9.843)"/><path fill="#72caaf" d="M26.32,55.11,9,60l4.25-18L45.89,9.39a3,3,0,0,1,4.24,0L59,18.21a3,3,0,0,1,0,4.24Z"/><path fill="#97e0bb" d="M15.49,46.1a10,10,0,0,1,2.31-3.62L48.89,11.39a3,3,0,0,1,2.39-.85L50.14,9.39a3,3,0,0,0-4.24,0L13.25,42,9,60l1.53-.43Z"/><path fill="#f9dd8f" d="M50.8,29.62,28.38,52,15.91,39.39,38.23,17Z"/><path fill="#efc88e" d="M46.8 25.62L24.41 48.01 28.38 52.04 50.8 29.62 46.8 25.62z"/><path fill="#ffeb9b" d="M18.91,41.39,40.73,19.55,38.23,17,15.91,39.39Z"/><path fill="#8d6c9f" d="M45.9 13.62L44.49 15a1 1 0 1 0 1.41 1.41L47.31 15a1 1 0 0 0-1.41-1.41zM49.43 17.15L48 18.57A1 1 0 0 0 49.44 20l1.41-1.42a1 1 0 0 0-1.42-1.41zM53 20.69L51.56 22.1A1 1 0 1 0 53 23.51l1.41-1.41A1 1 0 0 0 53 20.69zM38.68 22a1 1 0 0 0-1.36 0l-3 3a1 1 0 0 0 1.36 1.36l3-3A1 1 0 0 0 38.68 22zM31.32 28L22 37.32a1 1 0 0 0 1.36 1.36l9.27-9.27A1 1 0 0 0 31.32 28z"/><path fill="#8d6c9f" d="M64 10a5.92 5.92 0 0 0-1.75-4.22h0a6 6 0 0 0-8.43 0L50.86 8.7a4.81 4.81 0 0 0-4.23-.59 7 7 0 0 0-8.59 1L25.32 21.8a1 1 0 0 0 1.36 1.36L39.41 10.44a5.06 5.06 0 0 1 5.24-1.17l-.06 0L15.73 38.18a.47.47 0 0 0-.26.26l0 0a17 17 0 0 0-4.1 6.63l-2.66 8a2.94 2.94 0 0 0 .14 2.21L6.93 59.89a1 1 0 0 0 1.33 1.29l4.48-2a2.93 2.93 0 0 0 1.24.29 3 3 0 0 0 .94-.15l8-2.66a17 17 0 0 0 6.63-4.1l0 0a.48.48 0 0 0 .26-.26L58.68 23.41a5 5 0 0 0 .61-6.27l2.92-2.92A5.93 5.93 0 0 0 64 10zM29 50.33L17.67 39 38.2 18.43 49.57 29.8zm-6.74 4.5l-8 2.66a1 1 0 0 1-.86-.1h0l-2.83-2.83h0a1 1 0 0 1-.1-.86l2.66-8a15.09 15.09 0 0 1 3.12-5.3l11.3 11.3A15.09 15.09 0 0 1 22.29 54.83zM57.32 22h0l-6.39 6.39L39.56 17.07 46 10.68a3 3 0 0 1 4.29 0l7.07 7.07a3 3 0 0 1 0 4.29zm3.54-9.19L58 15.71 52.29 10l2.85-2.85a4 4 0 0 1 5.71 0h0a4 4 0 0 1 0 5.71zM2.74 48.78A22 22 0 0 1 4.24 33.09a4.8 4.8 0 0 0 4.46 1.64 4.07 4.07 0 0 0 3-2.94 3.38 3.38 0 0 0-.85-3.48 4.16 4.16 0 0 0-4.8-.35A6.19 6.19 0 0 0 4.6 29.1 8.34 8.34 0 0 1 5.73 25a14.27 14.27 0 0 1 9.48-7.08c.42-.09.84-.16 1.27-.23a11.69 11.69 0 0 0 3.82-1.1c1.87-1 3.19-3.46 2.17-5.43a1 1 0 0 0-1.71.88c.48.94-.33 2.29-1.39 2.86a10.11 10.11 0 0 1-3.21.89c-.45.08-.9.15-1.35.25A16.22 16.22 0 0 0 4 24a9.2 9.2 0 0 0-1.11 6.73q.06.22.15.44A23.53 23.53 0 0 0 .89 49.29a1 1 0 0 0 .93.71 1 1 0 0 0 .93-1.22zM7 29.63a2.32 2.32 0 0 1 2.56.08 1.53 1.53 0 0 1 .3 1.54 2.2 2.2 0 0 1-1.53 1.58 3.16 3.16 0 0 1-3-1.53A5.35 5.35 0 0 1 7 29.63zM4.12 52.39a1 1 0 1 0-1.73.85A21.74 21.74 0 0 0 3.8 55.69a1 1 0 0 0 1.6-1.07A19.87 19.87 0 0 1 4.12 52.39z"/></svg>