<svg xmlns="http://www.w3.org/2000/svg" width="192" height="192" viewBox="0 0 512 512"><path fill="#71C598" d="M334.7,407.5c-2.4-4.4-4.7-8.8-6.9-13.3c0-0.1,0.1-0.2,0.1-0.3c-0.7-2-1.5-4.2-2-5.9c-0.5-1.7-0.9-3.4-1.3-5.1c-0.4,0.5-0.8,1-1.2,1.4c-1.2,1.3-2.9,1.9-4.5,1.8c-14.7,14.8-39.8,18.5-59.6,18.6c-19.7,0.1-43.4-2.5-60.1-14.4c0,0.6-0.1,1.3-0.1,1.9c-0.8,3.4-2.1,6.7-3.2,10.1c-0.1,0.3-0.3,0.6-0.5,0.9c0.2,0.7,0.3,1.5,0.2,2.4c-0.6,5.9-8.3,10.1-5.7,16.3c1.9,4.5,7.8,6.4,12.1,7.5c6.4,1.6,12.9,2.2,19.4,3.2c8.7,1.4,17.4,2.6,26.2,3.4c9.9,0.8,19.9,1.2,29.8,0.7c8.9-0.5,17.4-2,26.1-3.3c11.6-1.7,28.5-8.1,31.5-20.9c0.3-1.2,0.9-2.2,1.6-2.8C336,409.1,335.3,408.3,334.7,407.5z"/><path fill="#FCBF95" d="M322.3,369c-3.8,2.2-7.8,4.2-12,6c-21.9,9-46.4,13.1-70,10.3c-15-1.8-28.7-6.4-41-13.8c0.2,1.8,0.3,3.7,0.3,5.5c0.7,0.2,1.3,0.6,1.9,1.2c14.4,13.2,38.4,15.9,57.1,15.7c18.3-0.2,42.8-2.8,55.2-18.2c1.3-1.6,2.8-2.1,4.3-1.9c1.2-1.4,2.6-2.6,4.2-3.5c0,0,0.1,0,0.1-0.1C322.4,369.7,322.3,369.4,322.3,369z"/><path fill="#FEBF10" d="M370.2,95.4c-6.4-29.2-23.6-54.4-50.7-68c-25.8-12.9-55.9-15-83.9-9.7c-28.6,5.4-56.9,18.7-77.5,39.5c-21.1,21.2-33.2,49-32.6,79h2.3c-0.2,10.6,0.5,21.3,1.4,31.9c0.5-0.1,1-0.3,1.5-0.4c-0.1-1.2-0.3-2.5-0.4-3.7c-0.2-1.5-0.3-3-0.5-4.5c-0.4-0.9-0.5-2-0.2-3.3c1.9-7.5,7.4-13.7,11.7-19.8c4.3-6,6.7-12.2,9.7-18.8c5.2-11.6,13.8-29.5,28.5-30.2c0,0,0,0,0.1,0c2.7-5.1,11.7-2.9,10.3,3.5c-2.4,10.3-1.7,20.7-1.5,31.1c3.3,0.2,6.5,0.6,9.7,1.1c-4.4-11.1-2.7-24.2-2.7-35.9c0-7.1,11-7.9,11-0.8c-0.1,11.2-2.1,24.1,2.7,34.6c0.7,1.6,0.6,3,0.1,4.2c2.8,0.6,5.5,1.2,8.3,1.8c0.4,0.1,0.8,0.2,1.2,0.2c-2-14.2-2.2-28.6-2.2-43c0-7.1,11-7.9,11-0.8c0,15.4,0.2,30.7,2.6,45.9c4.7,0.6,9.3,1.1,14,1.4c-3.6-15.2-5.1-30.7-5.2-46.4c0-7.1,10.9-7.9,11-0.8c0.1,16.1,1.5,32.1,5.6,47.8c4.4,0.2,8.8,0.4,13.2,0.6c-1-8.2-4.4-16.5-6.1-24.5c-1.7-7.9-4.4-18.8,1.7-25.6c4.7-5.3,13,2,8.3,7.3c-3.5,3.9,0.8,16.7,2.1,21.7c1.8,6.9,4.4,14.1,5.1,21.3c0.7,0,1.3,0,2,0c1.1,0,2.3,0,3.4-0.1c-2-16.5-8.5-32.3-7.2-49.1c0.6-7.1,11.4-4.9,10.8,2.1c-1.2,15.5,5.4,30.9,7.4,46.2c3.5-0.5,7-1.3,10.2-2.7c-0.4-14.6-3-28.7-7.2-42.7c-1.1-3.6,1.3-6.3,4.2-7.1c0.6-0.6,1.3-1.1,2.2-1.4c9.6-3.5,19.3,6.6,25,13c7.3,8.2,14.4,17.1,19.7,26.7c4.1,7.4,4.9,15.9,7.7,23.8c2.2,6.3,4,9,8.2,13.5c1.3,1.5,3.1,3.3,4.8,5.4C374.2,138.2,374.9,116.7,370.2,95.4z"/><path fill="#FCBF95" d="M383.6 199.9c-.2-3.6-.5-12.5-4.3-14.9-.9 13.6-2.7 27.1-4.7 40.6 3.5-2 7-5.3 8-8.1C384.5 212 383.8 205.5 383.6 199.9zM135.5 210.6c-1.1-10.5-2.4-21-3.6-31.4-7.8 3.4-8 17-7.1 25.3.8 7.2 2.6 14.5 5.8 21.1 1.6 3.2 4.2 7.3 7 9.5C136.9 226.9 136.3 218.7 135.5 210.6zM365 187.7c.7-2.9 1.4-5.7 2-8.6-3.4-1.3-4.7-6.4-2-9.2-.1-.1-.2-.3-.3-.4-1.2-1.7-2.5-3.4-4-5-2.6-2.9-5.7-5.6-7.8-8.9-3.5-5.5-5.8-11.5-7.3-17.8-1.4-5.4-2.4-11.2-5.2-16-4.6-7.8-10-15.2-15.9-22-3.1-3.6-6.4-7.1-10.2-9.9-1-.7-2-1.4-3.1-1.9 3.7 13.7 6 27.7 6.1 41.9 0 .3 0 .6-.1.9.7 2 .2 4.2-2.3 5.6-18.2 9.5-40.5 6.4-60.2 5.7-11.6-.5-22.8-.7-34.2-3.1-11.8-2.5-23.6-6-35.7-6.1-1.9 0-3.3-.8-4.3-2-1.8-.6-3.1-2.1-3.1-4.6-.1-9.1-.7-18.2.1-27.3-4 1.7-7.2 6.2-9.3 9.6-3.6 5.8-6.7 11.9-9.2 18.3-2.5 6.2-5.6 11.5-9.5 16.9-1.6 2.2-3.5 4.5-5.2 6.9v8.7c-.9 1-2.2 1.6-3.4 1.8.2 1.7.4 3.4.5 5.1 1.4 15.3 3.7 30.5 5.2 45.8 2.6 25.5 2.7 51.5 9.1 76.4 5.6 21.7 15.3 42.7 31.1 58.9 1.6 1.6 3.2 3.1 4.8 4.6.6.3 1.1.8 1.5 1.4 14.6 12.6 31.8 19.9 51.6 21.4 23.4 1.7 48-2.4 68.9-13.4 3.6-1.9 7-3.9 10.2-6.3.3-.8.7-1.5 1.1-2.2 1.2-2 3.1-2.8 5-2.8 3.7-3.4 6.9-7.2 9.7-11.5 6.4-10 10.2-21.3 12.5-32.9 2.4-12 3.6-24.1 5-36.2 1.6-13.5 3.9-26.9 5.9-40.3 1.7-11.8 3.4-23.7 4.5-35.6C365.6 192.4 364.3 190.4 365 187.7zM208.3 180c-1.6 3.4-4.5 6.2-8 7.8-5.3 2.5-11.5 2.8-16-1.4-3.9-3.7-4.3-9.3-3.6-14.6-2.3 1-4.5 2.2-6.2 3.2-6.1 3.6-11.3-6.2-5.2-9.7 15.9-9.3 42.7-14.4 48 9.4C218.7 180.3 211.7 183 208.3 180zM232.2 234.8c.6-10.4 2.2-20.6 2.7-31 .5-9.7 1-19.4 2-29.1 0-.1 0-.2 0-.4l.1-1.1c.7-7 11.8-6.7 11 .3-1 9-1.6 17.9-1.9 27-.4 9.8-1.7 19.4-2.5 29.1-.7 8.8-1.2 18 .3 26.7.8 4.7 2.1 10.4 5.4 14.4 1.5-.2 3.2.2 4.5 1.9l2.7 3.3c3.1 3.8-.2 11.3-5.7 9C231.8 276.7 231.2 252.4 232.2 234.8zM270.8 329c-9.8 10.5-25.6 2.6-36.8-.6-6.8-2-3.6-12.5 3.2-10.5 6.7 2 20.2 9.4 26.1 3.1C268.2 315.8 275.6 323.9 270.8 329zM320 181.4c-.5-.9-1.1-1.7-1.8-2.6 0 .7 0 1.4-.1 2-.9 6.9-7.4 13.2-14.7 12.1-6.7-1-11.3-7.9-10.7-14.6.1-.8.2-1.6.4-2.4-.6.4-1.1.9-1.6 1.4-5 5-12.4-3.1-7.4-8.1 7.7-7.7 19.2-9.6 29.2-6.4 3.9.7 7.4 2.9 10.4 5.7 2.5 2.1 4.6 4.7 6.1 7.7C333.1 182.6 323.7 187.3 320 181.4z"/><path fill="#71C598" d="M402.3,452.7c-5.1-6.4-13.6-9.9-20.8-13c-8.8-3.8-17.8-7.1-25.9-12.3c-3.5-2.3-6.8-4.9-9.8-7.7c-0.2,0.5-0.5,0.9-0.7,1.3c-0.3-0.4-0.7-0.8-1-1.2c-5.9,13.3-21.3,20.9-35,23.9c-21,4.5-42.2,5.2-63.5,3.3c-10.5-0.9-20.8-2.9-31.2-4.1c-7.1-0.9-14.4-1.9-21.1-4.7c-5.7-2.4-11.1-6.2-13.4-12c-12.6,7.2-26.8,11.4-40.5,15.9c-9.6,3.2-39.2,14.2-29.4,28.6c5.9,8.7,16.2,12.7,26.1,15.2c10.6,2.7,21.4,4,32.1,5.9c18.8,3.4,37.7,5.4,56.8,6.3c-0.1-0.6-0.1-1.2,0-1.8c2.3,0,4.6,0,6.8-0.2c2.1,0.4,4.2,0.7,6.2,0.9c-0.4,0.5-0.7,1-1.1,1.5c9.5,0.2,19,0.1,28.5-0.4c1.9-0.1,3.8-0.2,5.7-0.3c9.3,1.2,18.4-0.1,27.2-3.3c0.2,0.4,0.4,0.8,0.5,1.2c14-1.3,28-2.8,42-4.2c18.9-1.8,42.8-4.2,56.5-18.9C402.4,467.3,407.8,459.6,402.3,452.7z"/><path d="M402.7,438.5c-8.8-6.1-18.9-9.6-28.7-13.9c-14.5-6.4-24.9-15.8-34.1-28.5v-2.3c0-1.9-0.8-3.2-1.9-4c-0.1-0.2-0.1-0.4-0.2-0.5c-1.1-3.8-2.1-7.6-3-11.4c-1.1-4.9-2.6-11.4-1.4-16.7c10.8-9,19-20.5,24.3-34.5c8.6-22.7,8.8-47.7,12.4-71.4c0.9-5.8,1.8-11.5,2.6-17.3c6.5-1.6,13.4-6.4,17.5-11.4c5.8-7.1,4.4-18.3,4.3-26.8c-0.1-8.6-2.8-20.7-10.5-24.9c0.3-0.3,0.5-0.5,0.7-0.8c-1.7-1.1-3.3-2.3-4.7-3.8H380c7.5-40.4,7.2-84-16.6-118.9C346.8,27,320.1,12.1,291.6,6.6C233-4.7,165.8,20.6,132.8,70.9c-13.1,19.9-19.1,43.6-18.4,67.3c0.1,2,1,3.4,2.2,4.1c0.1,11,1,22.1,2,33c0,0.4,0.1,0.7,0.2,1c-4.8,7.9-5.8,19.4-5.1,28c1.3,15.5,7.7,37.7,24.4,42.9c0.2,0,0.3,0.1,0.5,0.1c1.3,15.1,3,30.1,6.8,44.8c6,23.1,16.9,45,33.4,62.5c2,2.1,4,4.1,6.1,6c3.4,5.8,3.5,13.2,3.6,19.8c0.1,5-0.2,9.9-0.4,14.9c-1.2,1.2-1.8,2.9-1.3,4.9c-1,0.7-1.6,1.8-1.8,3.4c-0.3,3.1-3.7,5.7-5.1,8.5c-0.2,0.5-0.4,1-0.6,1.5c-6.6,4.7-14.3,7.8-21.8,10.7c-14.1,5.4-28.7,8.8-41.9,16.4c-8.1,4.6-15.8,11.3-18.2,20.7c-2.5,9.9,5,19.6,12.4,25c8.9,6.5,20,9.6,30.6,11.9c11.5,2.5,23.4,4.1,35,6c31.8,5.1,64.2,6.2,96.4,4.6c14.6-0.8,29.1-2.5,43.7-4.1c9.9-1.1,19.8-1.6,29.7-2.6c20-2.1,42.3-5.8,57.7-19.8c6.9-6.3,12.8-14.8,12.7-24.4C415.6,449.6,409.1,442.9,402.7,438.5z M334.7,407.5c0.6,0.8,1.2,1.5,1.8,2.3c-0.7,0.7-1.3,1.6-1.6,2.8c-3,12.8-19.9,19.2-31.5,20.9c-8.7,1.3-17.2,2.8-26.1,3.3c-9.9,0.5-19.9,0.1-29.8-0.7c-8.8-0.7-17.5-1.9-26.2-3.4c-6.5-1.1-13-1.6-19.4-3.2c-4.3-1.1-10.2-3-12.1-7.5c-2.6-6.2,5.1-10.4,5.7-16.3c0.1-0.9,0-1.7-0.2-2.4c0.2-0.3,0.3-0.6,0.5-0.9c1.1-3.3,2.3-6.7,3.2-10.1c0-0.6,0.1-1.3,0.1-1.9c16.8,11.9,40.5,14.4,60.1,14.4c19.8-0.1,44.9-3.7,59.6-18.6c1.6,0.1,3.3-0.6,4.5-1.8c0.4-0.5,0.8-0.9,1.2-1.4c0.4,1.7,0.8,3.4,1.3,5.1c0.4,1.7,1.3,3.8,2,5.9c-0.1,0.1-0.1,0.2-0.1,0.3C330,398.7,332.3,403.2,334.7,407.5z M199.3,371.4c12.3,7.5,26,12,41,13.8c23.6,2.9,48.2-1.3,70-10.3c4.2-1.7,8.2-3.7,12-6c0,0.4,0.1,0.8,0.1,1.1c0,0-0.1,0-0.1,0.1c-1.6,0.8-3,2.1-4.2,3.5c-1.5-0.2-3.1,0.4-4.3,1.9c-12.4,15.5-36.8,18-55.2,18.2c-18.7,0.2-42.6-2.5-57.1-15.7c-0.6-0.6-1.3-0.9-1.9-1.2C199.5,375,199.4,373.2,199.3,371.4z M379.3,184.9c3.8,2.4,4.2,11.3,4.3,14.9c0.2,5.7,0.9,12.2-1,17.6c-1,2.9-4.5,6.1-8,8.1C376.6,212.1,378.4,198.5,379.3,184.9z M130.6,225.5c-3.2-6.6-5-13.8-5.8-21.1c-0.9-8.3-0.8-21.9,7.1-25.3c1.2,10.5,2.5,21,3.6,31.4c0.8,8.1,1.5,16.2,2.1,24.4C134.7,232.8,132.1,228.7,130.6,225.5z M129.5,156.2c-0.3,1.3-0.2,2.4,0.2,3.3c0.1,1.5,0.3,3,0.5,4.5c0.1,1.2,0.3,2.5,0.4,3.7c-0.5,0.1-1,0.2-1.5,0.4c-0.9-10.6-1.7-21.3-1.4-31.9h-2.3c-0.6-30,11.5-57.8,32.6-79c20.7-20.8,48.9-34.1,77.5-39.5c28.1-5.3,58.2-3.2,83.9,9.7c27.1,13.5,44.2,38.8,50.7,68c4.7,21.3,4,42.8,0.6,64.1c-1.7-2.1-3.4-4-4.8-5.4c-4.2-4.6-6-7.3-8.2-13.5c-2.8-7.9-3.6-16.3-7.7-23.8c-5.3-9.6-12.3-18.6-19.7-26.7c-5.7-6.4-15.4-16.5-25-13c-0.9,0.3-1.7,0.8-2.2,1.4c-2.8,0.7-5.2,3.5-4.2,7.1c4.1,14,6.8,28.2,7.2,42.7c-3.2,1.3-6.7,2.1-10.2,2.7c-2-15.3-8.6-30.7-7.4-46.2c0.6-7-10.2-9.2-10.8-2.1c-1.3,16.8,5.1,32.6,7.2,49.1c-1.2,0-2.3,0.1-3.4,0.1c-0.7,0-1.3,0-2,0c-0.7-7.2-3.3-14.4-5.1-21.3c-1.3-4.9-5.6-17.8-2.1-21.7c4.7-5.3-3.5-12.5-8.3-7.3c-6,6.8-3.3,17.7-1.7,25.6c1.7,8,5.1,16.2,6.1,24.5c-4.4-0.2-8.8-0.4-13.2-0.6c-4.1-15.6-5.6-31.6-5.6-47.8c0-7.1-11-6.2-11,0.8c0.1,15.7,1.6,31.2,5.2,46.4c-4.7-0.3-9.4-0.7-14-1.4c-2.4-15.2-2.6-30.5-2.6-45.9c0-7.1-11-6.2-11,0.8c0,14.4,0.2,28.8,2.2,43c-0.4-0.1-0.8-0.2-1.2-0.2c-2.8-0.6-5.5-1.2-8.3-1.8c0.6-1.1,0.7-2.6-0.1-4.2c-4.8-10.5-2.8-23.4-2.7-34.6c0-7.1-10.9-6.2-11,0.8c-0.1,11.6-1.8,24.7,2.7,35.9c-3.2-0.5-6.5-0.9-9.7-1.1c-0.2-10.4-0.9-20.8,1.5-31.1c1.5-6.4-7.6-8.6-10.3-3.5c0,0,0,0-0.1,0c-14.7,0.7-23.3,18.7-28.5,30.2c-3,6.7-5.4,12.8-9.7,18.8C136.8,142.5,131.3,148.7,129.5,156.2z M186.8,347.3c-15.8-16.2-25.5-37.2-31.1-58.9c-6.4-24.9-6.5-51-9.1-76.4c-1.6-15.3-3.8-30.5-5.2-45.8c-0.2-1.7-0.3-3.4-0.5-5.1c1.3-0.2,2.5-0.8,3.4-1.8v-8.7c1.7-2.4,3.7-4.8,5.2-6.9c3.9-5.4,7-10.7,9.5-16.9c2.5-6.3,5.5-12.5,9.2-18.3c2.1-3.4,5.3-7.9,9.3-9.6c-0.7,9-0.1,18.2-0.1,27.3c0,2.5,1.4,4,3.1,4.6c1,1.1,2.4,1.9,4.3,2c12.1,0.2,23.9,3.6,35.7,6.1c11.4,2.4,22.6,2.7,34.2,3.1c19.8,0.8,42,3.8,60.2-5.7c2.5-1.3,3-3.5,2.3-5.6c0-0.3,0.1-0.6,0.1-0.9c-0.1-14.3-2.4-28.2-6.1-41.9c1.1,0.5,2.1,1.2,3.1,1.9c3.8,2.8,7.1,6.4,10.2,9.9c5.9,6.8,11.3,14.2,15.9,22c2.8,4.8,3.9,10.7,5.2,16c1.6,6.3,3.8,12.3,7.3,17.8c2.1,3.3,5.2,6.1,7.8,8.9c1.4,1.6,2.8,3.2,4,5c0.1,0.1,0.2,0.2,0.3,0.4c-2.8,2.8-1.4,8,2,9.2c-0.6,2.9-1.3,5.8-2,8.6c-0.7,2.8,0.6,4.7,2.6,5.7c-1.1,11.9-2.7,23.8-4.5,35.6c-2,13.4-4.3,26.8-5.9,40.3c-1.4,12.1-2.6,24.3-5,36.2c-2.4,11.6-6.1,22.9-12.5,32.9c-2.8,4.3-6,8.2-9.7,11.5c-1.9-0.1-3.8,0.7-5,2.8c-0.4,0.7-0.8,1.5-1.1,2.2c-3.2,2.3-6.6,4.4-10.2,6.3c-20.9,11-45.5,15.1-68.9,13.4c-19.8-1.5-37-8.8-51.6-21.4c-0.5-0.6-1-1-1.5-1.4C190,350.4,188.4,348.9,186.8,347.3z M397.3,472.7c-13.8,14.7-37.7,17.1-56.5,18.9c-14,1.3-28,2.9-42,4.2c-0.1-0.4-0.3-0.8-0.5-1.2c-8.9,3.1-18,4.5-27.2,3.3c-1.9,0.1-3.8,0.2-5.7,0.3c-9.5,0.4-19,0.5-28.5,0.4c0.4-0.5,0.8-1,1.1-1.5c-2.1-0.3-4.2-0.6-6.2-0.9c-2.3,0.2-4.5,0.3-6.8,0.2c-0.1,0.6-0.1,1.2,0,1.8c-19-0.9-38-2.9-56.8-6.3c-10.7-1.9-21.5-3.2-32.1-5.9c-9.9-2.5-20.2-6.5-26.1-15.2c-9.8-14.3,19.8-25.4,29.4-28.6c13.7-4.6,27.9-8.8,40.5-15.9c2.3,5.8,7.7,9.6,13.4,12c6.7,2.8,14,3.9,21.1,4.7c10.4,1.2,20.7,3.2,31.2,4.1c21.3,1.9,42.6,1.2,63.5-3.3c13.7-3,29.1-10.6,35-23.9c0.3,0.4,0.7,0.8,1,1.2c0.2-0.5,0.5-0.9,0.7-1.3c3,2.8,6.3,5.4,9.8,7.7c8.1,5.2,17,8.5,25.9,12.3c7.3,3.1,15.8,6.7,20.8,13C407.8,459.6,402.4,467.3,397.3,472.7z"/><path d="M256.3 276l-2.7-3.3c-1.3-1.6-2.9-2.1-4.5-1.9-3.2-3.9-4.5-9.6-5.4-14.4-1.5-8.8-1-17.9-.3-26.7.8-9.7 2-19.3 2.5-29.1.4-9 1-18 1.9-27 .8-7-10.3-7.3-11-.3l-.1 1.1c0 .1 0 .2 0 .4-1 9.7-1.5 19.3-2 29.1-.5 10.4-2.1 20.6-2.7 31-1 17.6-.3 41.9 18.5 50.1C256.1 287.3 259.4 279.8 256.3 276zM263.3 321c-5.9 6.4-19.4-1.1-26.1-3.1-6.8-2-10 8.5-3.2 10.5 11.2 3.2 27.1 11.1 36.8.6C275.6 323.9 268.2 315.8 263.3 321zM329.7 176.2c-1.6-3-3.7-5.5-6.1-7.7-3-2.8-6.5-5-10.4-5.7-10-3.1-21.5-1.3-29.2 6.4-5 5 2.5 13.1 7.4 8.1.5-.5 1.1-1 1.6-1.4-.2.8-.3 1.6-.4 2.4-.6 6.7 4 13.6 10.7 14.6 7.3 1.1 13.8-5.2 14.7-12.1.1-.7.1-1.4.1-2 .6.8 1.2 1.7 1.8 2.6C323.7 187.3 333.1 182.6 329.7 176.2zM217.4 174.6c-5.3-23.8-32.1-18.7-48-9.4-6.1 3.6-1 13.3 5.2 9.7 1.8-1 3.9-2.2 6.2-3.2-.7 5.3-.3 10.9 3.6 14.6 4.5 4.2 10.7 3.9 16 1.4 3.4-1.6 6.4-4.4 8-7.8C211.7 183 218.7 180.3 217.4 174.6z"/></svg>